<?xml version="1.0" encoding="utf-8"?>
<!-- Generator: Adobe Illustrator 16.0.0, SVG Export Plug-In . SVG Version: 6.00 Build 0)  -->
<!DOCTYPE svg PUBLIC "-//W3C//DTD SVG 1.1//EN" "http://www.w3.org/Graphics/SVG/1.1/DTD/svg11.dtd">
<svg version="1.1" id="Livello_1" xmlns="http://www.w3.org/2000/svg" xmlns:xlink="http://www.w3.org/1999/xlink" x="0px" y="0px"
	 width="348.914px" height="289.902px" viewBox="109.626 59.905 348.914 289.902"
	 enable-background="new 109.626 59.905 348.914 289.902" xml:space="preserve">
<pattern  x="0.14" y="841.445" width="75.7" height="57" patternUnits="userSpaceOnUse" id="SVGID_1_" viewBox="0.101 -75.3 75.7 57" overflow="visible">
	<g>
		<polygon fill="none" points="0.101,-18.3 75.801,-18.3 75.801,-75.3 0.101,-75.3 		"/>
		<path fill="none" d="M0.101-18.3h75.7v-57h-75.7V-18.3z"/>
		<path fill="#8F774E" d="M75.7-85.699V-57h75.7v-28.699H75.7z"/>
		<path fill="#8F774E" d="M0-85.699V-57h75.801v-28.699H0z"/>
		<path fill="#715725" d="M10.4-78c-0.8,0.7-0.8,1.801-0.2,2.6c0.7,0.801,1.8,0.801,2.601,0.201l5.5-4.801
			c0.8-0.699,0.8-1.8,0.199-2.6c-0.699-0.801-1.8-0.801-2.6-0.2L10.4-78z M29.4-78c-0.8,0.7-0.8,1.801-0.2,2.6
			c0.7,0.801,1.8,0.801,2.601,0.201l5.5-4.801C38-80.6,38-81.8,37.4-82.5c-0.7-0.8-1.8-0.8-2.6-0.199L29.4-78z M48.301-78
			c-0.801,0.7-0.801,1.801-0.2,2.6c0.7,0.801,1.8,0.801,2.6,0.201L56.2-80c0.8-0.699,0.8-1.8,0.2-2.6c-0.7-0.801-1.8-0.801-2.6-0.2
			L48.301-78z M67.2-78c-0.8,0.7-0.8,1.801-0.2,2.6c0.7,0.801,1.801,0.801,2.601,0.201L75-80c0.801-0.699,0.801-1.8,0.2-2.6
			c-0.7-0.801-1.8-0.801-2.6-0.2L67.2-78z M10.4-70.8c-0.8,0.7-0.8,1.8-0.2,2.601C10.9-67.4,12-67.4,12.801-68l5.5-4.8
			c0.8-0.7,0.8-1.8,0.199-2.601c-0.699-0.799-1.8-0.799-2.6-0.199L10.4-70.8z M29.4-70.8c-0.8,0.7-0.8,1.8-0.2,2.601
			C29.9-67.4,31-67.4,31.801-68l5.5-4.8c0.8-0.7,0.8-1.8,0.199-2.601c-0.699-0.799-1.8-0.799-2.6-0.199L29.4-70.8z M48.301-70.8
			c-0.801,0.7-0.801,1.8-0.2,2.601c0.7,0.799,1.8,0.799,2.6,0.199l5.5-4.8c0.8-0.7,0.8-1.8,0.2-2.601
			c-0.7-0.799-1.8-0.799-2.6-0.199L48.301-70.8z M67.2-70.8c-0.8,0.7-0.8,1.8-0.2,2.601C67.7-67.4,68.801-67.4,69.601-68l5.5-4.8
			c0.8-0.7,0.8-1.8,0.2-2.601c-0.7-0.799-1.801-0.799-2.601-0.199L67.2-70.8z M10.4-63.699c-0.8,0.699-0.8,1.799-0.2,2.6
			c0.7,0.8,1.8,0.8,2.601,0.199l5.5-4.799c0.8-0.701,0.8-1.801,0.199-2.601c-0.699-0.8-1.8-0.8-2.6-0.2L10.4-63.699z M29.4-63.699
			c-0.8,0.699-0.8,1.799-0.2,2.6c0.7,0.8,1.8,0.8,2.601,0.199l5.5-4.799c0.8-0.701,0.8-1.801,0.199-2.601
			c-0.699-0.8-1.8-0.8-2.6-0.2L29.4-63.699z M48.301-63.699C47.5-63,47.5-61.9,48.101-61.1c0.7,0.8,1.8,0.8,2.6,0.199l5.5-4.799
			C57-66.4,57-67.5,56.4-68.3c-0.7-0.8-1.8-0.8-2.6-0.2L48.301-63.699z M67.2-63.699C66.4-63,66.4-61.9,67-61.1
			c0.7,0.8,1.801,0.8,2.601,0.199L75-65.699c0.801-0.701,0.801-1.801,0.2-2.601c-0.7-0.8-1.8-0.8-2.6-0.2L67.2-63.699z M8.801-74.4
			C9.601-73.699,9.7-72.6,9-71.8C8.301-71,7.2-71,6.4-71.6L1-76.4C0.2-77.1,0.2-78.199,0.801-79c0.699-0.699,1.8-0.8,2.6-0.199
			L8.801-74.4z M27.801-74.4c0.8,0.701,0.8,1.801,0.199,2.601c-0.699,0.8-1.8,0.8-2.6,0.2L19.9-76.4c-0.8-0.699-0.8-1.799-0.2-2.6
			c0.7-0.8,1.8-0.8,2.601-0.199L27.801-74.4z M8.801-60.4C9.601-59.699,9.601-58.6,9-57.8C8.301-57,7.2-57,6.4-57.6L1-62.5
			c-0.8-0.699-0.8-1.8-0.199-2.6C1.5-65.9,2.601-65.9,3.4-65.3L8.801-60.4z M8.801-67.3C9.601-66.6,9.7-65.5,9-64.699
			C8.301-63.9,7.2-63.9,6.4-64.5L1-69.3C0.2-70,0.2-71.1,0.801-71.9c0.699-0.799,1.8-0.799,2.6-0.199L8.801-67.3z M27.801-60.4
			c0.8,0.701,0.8,1.801,0.199,2.601c-0.699,0.8-1.8,0.8-2.6,0.2L19.9-62.4c-0.8-0.699-0.8-1.799-0.2-2.6
			c0.7-0.8,1.8-0.8,2.601-0.199L27.801-60.4z M27.801-67.3c0.8,0.7,0.8,1.8,0.199,2.601C27.301-63.9,26.2-63.9,25.4-64.5l-5.5-4.8
			c-0.8-0.7-0.8-1.8-0.2-2.601c0.7-0.799,1.8-0.799,2.601-0.199L27.801-67.3z M46.7-74.4c0.8,0.701,0.8,1.801,0.2,2.601
			c-0.7,0.8-1.8,0.8-2.6,0.2l-5.5-4.801C38-77.1,38-78.199,38.601-79c0.7-0.8,1.8-0.8,2.6-0.199L46.7-74.4z M65.601-74.4
			c0.8,0.701,0.8,1.801,0.2,2.601C65.101-71,64-71,63.2-71.6L57.7-76.4c-0.8-0.699-0.8-1.799-0.2-2.6c0.7-0.8,1.801-0.8,2.601-0.199
			L65.601-74.4z M46.7-60.4c0.8,0.701,0.8,1.801,0.2,2.601c-0.7,0.8-1.8,0.8-2.6,0.2l-5.5-4.801C38-63.1,38-64.199,38.601-65
			c0.7-0.8,1.8-0.8,2.6-0.199L46.7-60.4z M46.7-67.3c0.8,0.7,0.8,1.8,0.2,2.601c-0.7,0.799-1.8,0.799-2.6,0.199l-5.5-4.8
			C38-70,38-71.1,38.601-71.9c0.7-0.799,1.8-0.799,2.6-0.199L46.7-67.3z M65.601-60.4c0.8,0.701,0.8,1.801,0.2,2.601
			C65.101-57,64-57,63.2-57.6L57.7-62.4c-0.8-0.699-0.8-1.799-0.2-2.6c0.7-0.8,1.801-0.8,2.601-0.199L65.601-60.4z M65.601-67.3
			c0.8,0.7,0.8,1.8,0.2,2.601C65.101-63.9,64-63.9,63.2-64.5l-5.5-4.8c-0.8-0.7-0.8-1.8-0.2-2.601
			c0.7-0.799,1.801-0.799,2.601-0.199L65.601-67.3z"/>
		<g>
			<path fill="#8F774E" d="M75.7-57.199V-28.5h75.7v-28.699H75.7z"/>
		</g>
		<g>
			<path fill="#8F774E" d="M0-57.199V-28.5h75.801v-28.699H0z"/>
			<path fill="#715725" d="M10.4-56.6c-0.8,0.699-0.8,1.8-0.2,2.6c0.7,0.801,1.8,0.801,2.601,0.2l5.5-4.8
				c0.8-0.7,0.8-1.801,0.199-2.6C17.801-62,16.7-62,15.9-61.4L10.4-56.6z M29.4-56.6c-0.8,0.699-0.8,1.8-0.2,2.6
				c0.7,0.801,1.8,0.801,2.601,0.2l5.5-4.8c0.8-0.7,0.8-1.801,0.199-2.6C36.801-62,35.7-62,34.9-61.4L29.4-56.6z M48.301-56.6
				C47.5-55.9,47.5-54.8,48.101-54c0.7,0.801,1.8,0.801,2.6,0.2l5.5-4.8c0.8-0.7,0.8-1.801,0.2-2.6C55.7-62,54.601-62,53.801-61.4
				L48.301-56.6z M67.2-56.6C66.4-55.9,66.4-54.8,67-54c0.7,0.801,1.801,0.801,2.601,0.2l5.5-4.8c0.8-0.7,0.8-1.801,0.2-2.6
				C74.601-62,73.5-62,72.7-61.4L67.2-56.6z M10.4-49.5c-0.8,0.7-0.8,1.8-0.2,2.6c0.7,0.801,1.8,0.801,2.601,0.2l5.5-4.8
				c0.8-0.699,0.8-1.8,0.199-2.6c-0.699-0.801-1.8-0.801-2.6-0.2L10.4-49.5z M29.4-49.5c-0.8,0.7-0.8,1.8-0.2,2.6
				c0.7,0.801,1.8,0.801,2.601,0.2l5.5-4.8c0.8-0.699,0.8-1.8,0.199-2.6c-0.699-0.801-1.8-0.801-2.6-0.2L29.4-49.5z M48.301-49.5
				c-0.801,0.7-0.801,1.8-0.2,2.6c0.7,0.801,1.8,0.801,2.6,0.2l5.5-4.8c0.8-0.699,0.8-1.8,0.2-2.6c-0.7-0.801-1.8-0.801-2.6-0.2
				L48.301-49.5z M67.2-49.5c-0.8,0.7-0.8,1.8-0.2,2.6c0.7,0.801,1.801,0.801,2.601,0.2l5.5-4.8c0.8-0.699,0.8-1.8,0.2-2.6
				C74.601-54.9,73.5-54.9,72.7-54.3L67.2-49.5z M10.4-42.3c-0.8,0.7-0.8,1.8-0.2,2.6c0.7,0.8,1.8,0.8,2.601,0.2l5.5-4.8
				c0.8-0.7,0.8-1.8,0.199-2.601c-0.699-0.799-1.8-0.799-2.6-0.199L10.4-42.3z M29.4-42.3c-0.8,0.7-0.8,1.8-0.2,2.6
				c0.7,0.8,1.8,0.8,2.601,0.2l5.5-4.8c0.8-0.7,0.8-1.8,0.199-2.601c-0.699-0.799-1.8-0.799-2.6-0.199L29.4-42.3z M48.301-42.3
				c-0.801,0.7-0.801,1.8-0.2,2.6c0.7,0.8,1.8,0.8,2.6,0.2l5.5-4.8C57-45,57-46.1,56.4-46.9c-0.7-0.799-1.8-0.799-2.6-0.199
				L48.301-42.3z M67.2-42.3c-0.8,0.7-0.8,1.8-0.2,2.6c0.7,0.8,1.801,0.8,2.601,0.2l5.5-4.8c0.8-0.7,0.8-1.8,0.2-2.601
				c-0.7-0.799-1.801-0.799-2.601-0.199L67.2-42.3z M10.4-35.2c-0.8,0.7-0.8,1.8-0.2,2.601c0.7,0.8,1.8,0.8,2.601,0.199l5.5-4.8
				c0.8-0.7,0.8-1.8,0.199-2.6c-0.699-0.8-1.8-0.8-2.6-0.2L10.4-35.2z M29.4-35.2c-0.8,0.7-0.8,1.8-0.2,2.601
				c0.7,0.8,1.8,0.8,2.601,0.199l5.5-4.8c0.8-0.7,0.8-1.8,0.199-2.6c-0.699-0.8-1.8-0.8-2.6-0.2L29.4-35.2z M48.301-35.2
				c-0.801,0.7-0.801,1.8-0.2,2.601c0.7,0.8,1.8,0.8,2.6,0.199l5.5-4.8c0.8-0.7,0.8-1.8,0.2-2.6c-0.7-0.8-1.8-0.8-2.6-0.2
				L48.301-35.2z M67.2-35.2c-0.8,0.7-0.8,1.8-0.2,2.601c0.7,0.8,1.801,0.8,2.601,0.199l5.5-4.8c0.8-0.7,0.8-1.8,0.2-2.6
				c-0.7-0.8-1.801-0.8-2.601-0.2L67.2-35.2z M8.801-53c0.8,0.7,0.8,1.801,0.199,2.6C8.301-49.6,7.2-49.6,6.4-50.199L1-55
				c-0.8-0.699-0.8-1.8-0.199-2.6C1.5-58.4,2.601-58.4,3.4-57.8L8.801-53z M27.801-53c0.8,0.7,0.8,1.801,0.199,2.6
				c-0.699,0.801-1.8,0.801-2.6,0.201L19.9-55c-0.8-0.699-0.8-1.8-0.2-2.6c0.7-0.801,1.8-0.801,2.601-0.2L27.801-53z M8.801-45.9
				C9.601-45.2,9.601-44.1,9-43.3c-0.699,0.8-1.8,0.8-2.6,0.2L1-47.9c-0.8-0.699-0.8-1.799-0.199-2.6c0.699-0.8,1.8-0.8,2.6-0.199
				L8.801-45.9z M27.801-45.9c0.8,0.7,0.8,1.801,0.199,2.601c-0.699,0.8-1.8,0.8-2.6,0.2L19.9-47.9c-0.8-0.699-0.8-1.799-0.2-2.6
				c0.7-0.8,1.8-0.8,2.601-0.199L27.801-45.9z M46.7-53c0.8,0.7,0.8,1.801,0.2,2.6c-0.7,0.801-1.8,0.801-2.6,0.201L38.801-55
				C38-55.699,38-56.8,38.601-57.6c0.7-0.801,1.8-0.801,2.6-0.2L46.7-53z M65.601-53c0.8,0.7,0.8,1.801,0.2,2.6
				C65.101-49.6,64-49.6,63.2-50.199L57.7-55c-0.8-0.699-0.8-1.8-0.2-2.6c0.7-0.801,1.801-0.801,2.601-0.2L65.601-53z M8.801-31.9
				C9.601-31.2,9.601-30.1,9-29.3c-0.699,0.8-1.8,0.8-2.6,0.2L1-34c-0.8-0.7-0.8-1.8-0.199-2.6C1.5-37.4,2.601-37.4,3.4-36.8
				L8.801-31.9z M8.801-38.8c0.8,0.7,0.8,1.8,0.199,2.6c-0.699,0.8-1.8,0.8-2.6,0.2L1-40.8c-0.8-0.7-0.8-1.8-0.199-2.601
				c0.699-0.799,1.8-0.799,2.6-0.199L8.801-38.8z M27.801-31.9c0.8,0.7,0.8,1.801,0.199,2.601c-0.699,0.8-1.8,0.8-2.6,0.2L19.9-33.9
				c-0.8-0.699-0.8-1.8-0.2-2.6c0.7-0.8,1.8-0.8,2.601-0.2L27.801-31.9z M27.801-38.8c0.8,0.7,0.8,1.8,0.199,2.6
				c-0.699,0.8-1.8,0.8-2.6,0.2l-5.5-4.8c-0.8-0.7-0.8-1.8-0.2-2.601c0.7-0.799,1.8-0.799,2.601-0.199L27.801-38.8z M46.7-45.9
				c0.8,0.7,0.8,1.801,0.2,2.601c-0.7,0.8-1.8,0.8-2.6,0.2l-5.5-4.801C38-48.6,38-49.699,38.601-50.5c0.7-0.8,1.8-0.8,2.6-0.199
				L46.7-45.9z M65.601-45.9c0.8,0.7,0.8,1.801,0.2,2.601c-0.7,0.8-1.801,0.8-2.601,0.2L57.7-47.9c-0.8-0.699-0.8-1.799-0.2-2.6
				c0.7-0.8,1.801-0.8,2.601-0.199L65.601-45.9z M46.7-31.9c0.8,0.7,0.8,1.801,0.2,2.601c-0.7,0.8-1.8,0.8-2.6,0.2l-5.5-4.801
				C38-34.6,38-35.7,38.601-36.5c0.7-0.8,1.8-0.8,2.6-0.2L46.7-31.9z M46.7-38.8c0.8,0.7,0.8,1.8,0.2,2.6c-0.7,0.8-1.8,0.8-2.6,0.2
				l-5.5-4.8C38-41.5,38-42.6,38.601-43.4c0.7-0.799,1.8-0.799,2.6-0.199L46.7-38.8z M65.601-31.9c0.8,0.7,0.8,1.801,0.2,2.601
				c-0.7,0.8-1.801,0.8-2.601,0.2L57.7-33.9c-0.8-0.699-0.8-1.8-0.2-2.6c0.7-0.8,1.801-0.8,2.601-0.2L65.601-31.9z M65.601-38.8
				c0.8,0.7,0.8,1.8,0.2,2.6C65.101-35.4,64-35.4,63.2-36l-5.5-4.8c-0.8-0.7-0.8-1.8-0.2-2.601c0.7-0.799,1.801-0.799,2.601-0.199
				L65.601-38.8z"/>
		</g>
		<g>
			<path fill="#8F774E" d="M75.7-28.7V0h75.7v-28.7H75.7z"/>
		</g>
		<g>
			<path fill="#8F774E" d="M0-28.7V0h75.801v-28.7H0z"/>
			<path fill="#715725" d="M10.4-28.1c-0.8,0.699-0.8,1.8-0.2,2.6c0.7,0.8,1.8,0.8,2.601,0.2l5.5-4.8c0.8-0.7,0.8-1.801,0.199-2.601
				c-0.699-0.8-1.8-0.8-2.6-0.2L10.4-28.1z M29.4-28.1c-0.8,0.699-0.8,1.8-0.2,2.6c0.7,0.8,1.8,0.8,2.601,0.2l5.5-4.8
				c0.8-0.7,0.8-1.801,0.199-2.601c-0.699-0.8-1.8-0.8-2.6-0.2L29.4-28.1z M48.301-28.1c-0.801,0.699-0.801,1.8-0.2,2.6
				c0.7,0.8,1.8,0.8,2.6,0.2l5.5-4.8C57-30.8,57-31.9,56.4-32.7c-0.7-0.8-1.8-0.8-2.6-0.2L48.301-28.1z M67.2-28.1
				c-0.8,0.699-0.8,1.8-0.2,2.6c0.7,0.8,1.801,0.8,2.601,0.2l5.5-4.8c0.8-0.7,0.8-1.801,0.2-2.601c-0.7-0.8-1.801-0.8-2.601-0.2
				L67.2-28.1z M10.4-21c-0.8,0.7-0.8,1.8-0.2,2.6c0.7,0.801,1.8,0.801,2.601,0.2l5.5-4.8c0.8-0.7,0.8-1.8,0.199-2.6
				c-0.699-0.801-1.8-0.801-2.6-0.2L10.4-21z M29.4-21c-0.8,0.7-0.8,1.8-0.2,2.6c0.7,0.801,1.8,0.801,2.601,0.2l5.5-4.8
				c0.8-0.7,0.8-1.8,0.199-2.6c-0.699-0.801-1.8-0.801-2.6-0.2L29.4-21z M48.301-21c-0.801,0.7-0.801,1.8-0.2,2.6
				c0.7,0.801,1.8,0.801,2.6,0.2l5.5-4.8c0.8-0.7,0.8-1.8,0.2-2.6c-0.7-0.801-1.8-0.801-2.6-0.2L48.301-21z M67.2-21
				c-0.8,0.7-0.8,1.8-0.2,2.6c0.7,0.801,1.801,0.801,2.601,0.2l5.5-4.8c0.8-0.7,0.8-1.8,0.2-2.6C74.601-26.4,73.5-26.4,72.7-25.8
				L67.2-21z M10.4-13.8c-0.8,0.7-0.8,1.8-0.2,2.6c0.7,0.8,1.8,0.8,2.601,0.2l5.5-4.8c0.8-0.7,0.8-1.8,0.199-2.601
				c-0.699-0.8-1.8-0.8-2.6-0.199L10.4-13.8z M29.4-13.8c-0.8,0.7-0.8,1.8-0.2,2.6c0.7,0.8,1.8,0.8,2.601,0.2l5.5-4.8
				c0.8-0.7,0.8-1.8,0.199-2.601c-0.699-0.8-1.8-0.8-2.6-0.199L29.4-13.8z M48.301-13.8c-0.801,0.7-0.801,1.8-0.2,2.6
				c0.7,0.8,1.8,0.8,2.6,0.2l5.5-4.8c0.8-0.7,0.8-1.8,0.2-2.601c-0.7-0.8-1.8-0.8-2.6-0.199L48.301-13.8z M67.2-13.8
				c-0.8,0.7-0.8,1.8-0.2,2.6c0.7,0.8,1.801,0.8,2.601,0.2l5.5-4.8c0.8-0.7,0.8-1.8,0.2-2.601c-0.7-0.8-1.801-0.8-2.601-0.199
				L67.2-13.8z M8.801-24.5C9.601-23.9,9.7-22.7,9-22c-0.699,0.8-1.8,0.8-2.6,0.2L1-26.5c-0.8-0.7-0.8-1.8-0.199-2.6
				C1.5-29.9,2.601-29.9,3.4-29.3L8.801-24.5z M27.801-24.5c0.8,0.7,0.8,1.8,0.199,2.6c-0.699,0.801-1.8,0.801-2.6,0.2l-5.5-4.8
				c-0.8-0.7-0.8-1.8-0.2-2.6c0.7-0.801,1.8-0.801,2.601-0.2L27.801-24.5z M8.801-17.4C9.601-16.7,9.7-15.6,9-14.8
				C8.301-14,7.2-14,6.4-14.6L1-19.4C0.2-20.1,0.2-21.2,0.801-22c0.699-0.8,1.8-0.8,2.6-0.199L8.801-17.4z M27.801-17.4
				c0.8,0.7,0.8,1.801,0.199,2.601c-0.699,0.8-1.8,0.8-2.6,0.2L19.9-19.4c-0.8-0.699-0.8-1.8-0.2-2.6c0.7-0.8,1.8-0.8,2.601-0.2
				L27.801-17.4z M46.7-24.5c0.8,0.7,0.8,1.8,0.2,2.6c-0.7,0.801-1.8,0.801-2.6,0.2l-5.5-4.8C38-27.2,38-28.3,38.601-29.1
				c0.7-0.801,1.8-0.801,2.6-0.2L46.7-24.5z M65.601-24.5c0.8,0.7,0.8,1.8,0.2,2.6C65.101-21.1,64-21.1,63.2-21.7l-5.5-4.8
				c-0.8-0.7-0.8-1.8-0.2-2.6c0.7-0.801,1.801-0.801,2.601-0.2L65.601-24.5z M46.7-17.4c0.8,0.7,0.8,1.801,0.2,2.601
				c-0.7,0.8-1.8,0.8-2.6,0.2l-5.5-4.801C38-20.1,38-21.2,38.601-22c0.7-0.8,1.8-0.8,2.6-0.2L46.7-17.4z M65.601-17.4
				c0.8,0.7,0.8,1.801,0.2,2.601C65.101-14,64-14,63.2-14.6L57.7-19.4c-0.8-0.699-0.8-1.8-0.2-2.6c0.7-0.8,1.801-0.8,2.601-0.2
				L65.601-17.4z"/>
		</g>
	</g>
</pattern>
<pattern  x="0.14" y="841.445" width="75.7" height="57" patternUnits="userSpaceOnUse" id="SVGID_2_" viewBox="0.101 -75.3 75.7 57" overflow="visible">
	<g>
		<polygon fill="none" points="0.101,-18.3 75.801,-18.3 75.801,-75.3 0.101,-75.3 		"/>
		<path fill="none" d="M0.101-18.3h75.7v-57h-75.7V-18.3z"/>
		<path fill="#8F774E" d="M75.7-85.699V-57h75.7v-28.699H75.7z"/>
		<path fill="#8F774E" d="M0-85.699V-57h75.801v-28.699H0z"/>
		<path fill="#715725" d="M10.4-78c-0.8,0.7-0.8,1.801-0.2,2.6c0.7,0.801,1.8,0.801,2.601,0.201l5.5-4.801
			c0.8-0.699,0.8-1.8,0.199-2.6c-0.699-0.801-1.8-0.801-2.6-0.2L10.4-78z M29.4-78c-0.8,0.7-0.8,1.801-0.2,2.6
			c0.7,0.801,1.8,0.801,2.601,0.201l5.5-4.801C38-80.6,38-81.8,37.4-82.5c-0.7-0.8-1.8-0.8-2.6-0.199L29.4-78z M48.301-78
			c-0.801,0.7-0.801,1.801-0.2,2.6c0.7,0.801,1.8,0.801,2.6,0.201L56.2-80c0.8-0.699,0.8-1.8,0.2-2.6c-0.7-0.801-1.8-0.801-2.6-0.2
			L48.301-78z M67.2-78c-0.8,0.7-0.8,1.801-0.2,2.6c0.7,0.801,1.801,0.801,2.601,0.201L75-80c0.801-0.699,0.801-1.8,0.2-2.6
			c-0.7-0.801-1.8-0.801-2.6-0.2L67.2-78z M10.4-70.8c-0.8,0.7-0.8,1.8-0.2,2.601C10.9-67.4,12-67.4,12.801-68l5.5-4.8
			c0.8-0.7,0.8-1.8,0.199-2.601c-0.699-0.799-1.8-0.799-2.6-0.199L10.4-70.8z M29.4-70.8c-0.8,0.7-0.8,1.8-0.2,2.601
			C29.9-67.4,31-67.4,31.801-68l5.5-4.8c0.8-0.7,0.8-1.8,0.199-2.601c-0.699-0.799-1.8-0.799-2.6-0.199L29.4-70.8z M48.301-70.8
			c-0.801,0.7-0.801,1.8-0.2,2.601c0.7,0.799,1.8,0.799,2.6,0.199l5.5-4.8c0.8-0.7,0.8-1.8,0.2-2.601
			c-0.7-0.799-1.8-0.799-2.6-0.199L48.301-70.8z M67.2-70.8c-0.8,0.7-0.8,1.8-0.2,2.601C67.7-67.4,68.801-67.4,69.601-68l5.5-4.8
			c0.8-0.7,0.8-1.8,0.2-2.601c-0.7-0.799-1.801-0.799-2.601-0.199L67.2-70.8z M10.4-63.699c-0.8,0.699-0.8,1.799-0.2,2.6
			c0.7,0.8,1.8,0.8,2.601,0.199l5.5-4.799c0.8-0.701,0.8-1.801,0.199-2.601c-0.699-0.8-1.8-0.8-2.6-0.2L10.4-63.699z M29.4-63.699
			c-0.8,0.699-0.8,1.799-0.2,2.6c0.7,0.8,1.8,0.8,2.601,0.199l5.5-4.799c0.8-0.701,0.8-1.801,0.199-2.601
			c-0.699-0.8-1.8-0.8-2.6-0.2L29.4-63.699z M48.301-63.699C47.5-63,47.5-61.9,48.101-61.1c0.7,0.8,1.8,0.8,2.6,0.199l5.5-4.799
			C57-66.4,57-67.5,56.4-68.3c-0.7-0.8-1.8-0.8-2.6-0.2L48.301-63.699z M67.2-63.699C66.4-63,66.4-61.9,67-61.1
			c0.7,0.8,1.801,0.8,2.601,0.199L75-65.699c0.801-0.701,0.801-1.801,0.2-2.601c-0.7-0.8-1.8-0.8-2.6-0.2L67.2-63.699z M8.801-74.4
			C9.601-73.699,9.7-72.6,9-71.8C8.301-71,7.2-71,6.4-71.6L1-76.4C0.2-77.1,0.2-78.199,0.801-79c0.699-0.699,1.8-0.8,2.6-0.199
			L8.801-74.4z M27.801-74.4c0.8,0.701,0.8,1.801,0.199,2.601c-0.699,0.8-1.8,0.8-2.6,0.2L19.9-76.4c-0.8-0.699-0.8-1.799-0.2-2.6
			c0.7-0.8,1.8-0.8,2.601-0.199L27.801-74.4z M8.801-60.4C9.601-59.699,9.601-58.6,9-57.8C8.301-57,7.2-57,6.4-57.6L1-62.5
			c-0.8-0.699-0.8-1.8-0.199-2.6C1.5-65.9,2.601-65.9,3.4-65.3L8.801-60.4z M8.801-67.3C9.601-66.6,9.7-65.5,9-64.699
			C8.301-63.9,7.2-63.9,6.4-64.5L1-69.3C0.2-70,0.2-71.1,0.801-71.9c0.699-0.799,1.8-0.799,2.6-0.199L8.801-67.3z M27.801-60.4
			c0.8,0.701,0.8,1.801,0.199,2.601c-0.699,0.8-1.8,0.8-2.6,0.2L19.9-62.4c-0.8-0.699-0.8-1.799-0.2-2.6
			c0.7-0.8,1.8-0.8,2.601-0.199L27.801-60.4z M27.801-67.3c0.8,0.7,0.8,1.8,0.199,2.601C27.301-63.9,26.2-63.9,25.4-64.5l-5.5-4.8
			c-0.8-0.7-0.8-1.8-0.2-2.601c0.7-0.799,1.8-0.799,2.601-0.199L27.801-67.3z M46.7-74.4c0.8,0.701,0.8,1.801,0.2,2.601
			c-0.7,0.8-1.8,0.8-2.6,0.2l-5.5-4.801C38-77.1,38-78.199,38.601-79c0.7-0.8,1.8-0.8,2.6-0.199L46.7-74.4z M65.601-74.4
			c0.8,0.701,0.8,1.801,0.2,2.601C65.101-71,64-71,63.2-71.6L57.7-76.4c-0.8-0.699-0.8-1.799-0.2-2.6c0.7-0.8,1.801-0.8,2.601-0.199
			L65.601-74.4z M46.7-60.4c0.8,0.701,0.8,1.801,0.2,2.601c-0.7,0.8-1.8,0.8-2.6,0.2l-5.5-4.801C38-63.1,38-64.199,38.601-65
			c0.7-0.8,1.8-0.8,2.6-0.199L46.7-60.4z M46.7-67.3c0.8,0.7,0.8,1.8,0.2,2.601c-0.7,0.799-1.8,0.799-2.6,0.199l-5.5-4.8
			C38-70,38-71.1,38.601-71.9c0.7-0.799,1.8-0.799,2.6-0.199L46.7-67.3z M65.601-60.4c0.8,0.701,0.8,1.801,0.2,2.601
			C65.101-57,64-57,63.2-57.6L57.7-62.4c-0.8-0.699-0.8-1.799-0.2-2.6c0.7-0.8,1.801-0.8,2.601-0.199L65.601-60.4z M65.601-67.3
			c0.8,0.7,0.8,1.8,0.2,2.601C65.101-63.9,64-63.9,63.2-64.5l-5.5-4.8c-0.8-0.7-0.8-1.8-0.2-2.601
			c0.7-0.799,1.801-0.799,2.601-0.199L65.601-67.3z"/>
		<g>
			<path fill="#8F774E" d="M75.7-57.199V-28.5h75.7v-28.699H75.7z"/>
		</g>
		<g>
			<path fill="#8F774E" d="M0-57.199V-28.5h75.801v-28.699H0z"/>
			<path fill="#715725" d="M10.4-56.6c-0.8,0.699-0.8,1.8-0.2,2.6c0.7,0.801,1.8,0.801,2.601,0.2l5.5-4.8
				c0.8-0.7,0.8-1.801,0.199-2.6C17.801-62,16.7-62,15.9-61.4L10.4-56.6z M29.4-56.6c-0.8,0.699-0.8,1.8-0.2,2.6
				c0.7,0.801,1.8,0.801,2.601,0.2l5.5-4.8c0.8-0.7,0.8-1.801,0.199-2.6C36.801-62,35.7-62,34.9-61.4L29.4-56.6z M48.301-56.6
				C47.5-55.9,47.5-54.8,48.101-54c0.7,0.801,1.8,0.801,2.6,0.2l5.5-4.8c0.8-0.7,0.8-1.801,0.2-2.6C55.7-62,54.601-62,53.801-61.4
				L48.301-56.6z M67.2-56.6C66.4-55.9,66.4-54.8,67-54c0.7,0.801,1.801,0.801,2.601,0.2l5.5-4.8c0.8-0.7,0.8-1.801,0.2-2.6
				C74.601-62,73.5-62,72.7-61.4L67.2-56.6z M10.4-49.5c-0.8,0.7-0.8,1.8-0.2,2.6c0.7,0.801,1.8,0.801,2.601,0.2l5.5-4.8
				c0.8-0.699,0.8-1.8,0.199-2.6c-0.699-0.801-1.8-0.801-2.6-0.2L10.4-49.5z M29.4-49.5c-0.8,0.7-0.8,1.8-0.2,2.6
				c0.7,0.801,1.8,0.801,2.601,0.2l5.5-4.8c0.8-0.699,0.8-1.8,0.199-2.6c-0.699-0.801-1.8-0.801-2.6-0.2L29.4-49.5z M48.301-49.5
				c-0.801,0.7-0.801,1.8-0.2,2.6c0.7,0.801,1.8,0.801,2.6,0.2l5.5-4.8c0.8-0.699,0.8-1.8,0.2-2.6c-0.7-0.801-1.8-0.801-2.6-0.2
				L48.301-49.5z M67.2-49.5c-0.8,0.7-0.8,1.8-0.2,2.6c0.7,0.801,1.801,0.801,2.601,0.2l5.5-4.8c0.8-0.699,0.8-1.8,0.2-2.6
				C74.601-54.9,73.5-54.9,72.7-54.3L67.2-49.5z M10.4-42.3c-0.8,0.7-0.8,1.8-0.2,2.6c0.7,0.8,1.8,0.8,2.601,0.2l5.5-4.8
				c0.8-0.7,0.8-1.8,0.199-2.601c-0.699-0.799-1.8-0.799-2.6-0.199L10.4-42.3z M29.4-42.3c-0.8,0.7-0.8,1.8-0.2,2.6
				c0.7,0.8,1.8,0.8,2.601,0.2l5.5-4.8c0.8-0.7,0.8-1.8,0.199-2.601c-0.699-0.799-1.8-0.799-2.6-0.199L29.4-42.3z M48.301-42.3
				c-0.801,0.7-0.801,1.8-0.2,2.6c0.7,0.8,1.8,0.8,2.6,0.2l5.5-4.8C57-45,57-46.1,56.4-46.9c-0.7-0.799-1.8-0.799-2.6-0.199
				L48.301-42.3z M67.2-42.3c-0.8,0.7-0.8,1.8-0.2,2.6c0.7,0.8,1.801,0.8,2.601,0.2l5.5-4.8c0.8-0.7,0.8-1.8,0.2-2.601
				c-0.7-0.799-1.801-0.799-2.601-0.199L67.2-42.3z M10.4-35.2c-0.8,0.7-0.8,1.8-0.2,2.601c0.7,0.8,1.8,0.8,2.601,0.199l5.5-4.8
				c0.8-0.7,0.8-1.8,0.199-2.6c-0.699-0.8-1.8-0.8-2.6-0.2L10.4-35.2z M29.4-35.2c-0.8,0.7-0.8,1.8-0.2,2.601
				c0.7,0.8,1.8,0.8,2.601,0.199l5.5-4.8c0.8-0.7,0.8-1.8,0.199-2.6c-0.699-0.8-1.8-0.8-2.6-0.2L29.4-35.2z M48.301-35.2
				c-0.801,0.7-0.801,1.8-0.2,2.601c0.7,0.8,1.8,0.8,2.6,0.199l5.5-4.8c0.8-0.7,0.8-1.8,0.2-2.6c-0.7-0.8-1.8-0.8-2.6-0.2
				L48.301-35.2z M67.2-35.2c-0.8,0.7-0.8,1.8-0.2,2.601c0.7,0.8,1.801,0.8,2.601,0.199l5.5-4.8c0.8-0.7,0.8-1.8,0.2-2.6
				c-0.7-0.8-1.801-0.8-2.601-0.2L67.2-35.2z M8.801-53c0.8,0.7,0.8,1.801,0.199,2.6C8.301-49.6,7.2-49.6,6.4-50.199L1-55
				c-0.8-0.699-0.8-1.8-0.199-2.6C1.5-58.4,2.601-58.4,3.4-57.8L8.801-53z M27.801-53c0.8,0.7,0.8,1.801,0.199,2.6
				c-0.699,0.801-1.8,0.801-2.6,0.201L19.9-55c-0.8-0.699-0.8-1.8-0.2-2.6c0.7-0.801,1.8-0.801,2.601-0.2L27.801-53z M8.801-45.9
				C9.601-45.2,9.601-44.1,9-43.3c-0.699,0.8-1.8,0.8-2.6,0.2L1-47.9c-0.8-0.699-0.8-1.799-0.199-2.6c0.699-0.8,1.8-0.8,2.6-0.199
				L8.801-45.9z M27.801-45.9c0.8,0.7,0.8,1.801,0.199,2.601c-0.699,0.8-1.8,0.8-2.6,0.2L19.9-47.9c-0.8-0.699-0.8-1.799-0.2-2.6
				c0.7-0.8,1.8-0.8,2.601-0.199L27.801-45.9z M46.7-53c0.8,0.7,0.8,1.801,0.2,2.6c-0.7,0.801-1.8,0.801-2.6,0.201L38.801-55
				C38-55.699,38-56.8,38.601-57.6c0.7-0.801,1.8-0.801,2.6-0.2L46.7-53z M65.601-53c0.8,0.7,0.8,1.801,0.2,2.6
				C65.101-49.6,64-49.6,63.2-50.199L57.7-55c-0.8-0.699-0.8-1.8-0.2-2.6c0.7-0.801,1.801-0.801,2.601-0.2L65.601-53z M8.801-31.9
				C9.601-31.2,9.601-30.1,9-29.3c-0.699,0.8-1.8,0.8-2.6,0.2L1-34c-0.8-0.7-0.8-1.8-0.199-2.6C1.5-37.4,2.601-37.4,3.4-36.8
				L8.801-31.9z M8.801-38.8c0.8,0.7,0.8,1.8,0.199,2.6c-0.699,0.8-1.8,0.8-2.6,0.2L1-40.8c-0.8-0.7-0.8-1.8-0.199-2.601
				c0.699-0.799,1.8-0.799,2.6-0.199L8.801-38.8z M27.801-31.9c0.8,0.7,0.8,1.801,0.199,2.601c-0.699,0.8-1.8,0.8-2.6,0.2L19.9-33.9
				c-0.8-0.699-0.8-1.8-0.2-2.6c0.7-0.8,1.8-0.8,2.601-0.2L27.801-31.9z M27.801-38.8c0.8,0.7,0.8,1.8,0.199,2.6
				c-0.699,0.8-1.8,0.8-2.6,0.2l-5.5-4.8c-0.8-0.7-0.8-1.8-0.2-2.601c0.7-0.799,1.8-0.799,2.601-0.199L27.801-38.8z M46.7-45.9
				c0.8,0.7,0.8,1.801,0.2,2.601c-0.7,0.8-1.8,0.8-2.6,0.2l-5.5-4.801C38-48.6,38-49.699,38.601-50.5c0.7-0.8,1.8-0.8,2.6-0.199
				L46.7-45.9z M65.601-45.9c0.8,0.7,0.8,1.801,0.2,2.601c-0.7,0.8-1.801,0.8-2.601,0.2L57.7-47.9c-0.8-0.699-0.8-1.799-0.2-2.6
				c0.7-0.8,1.801-0.8,2.601-0.199L65.601-45.9z M46.7-31.9c0.8,0.7,0.8,1.801,0.2,2.601c-0.7,0.8-1.8,0.8-2.6,0.2l-5.5-4.801
				C38-34.6,38-35.7,38.601-36.5c0.7-0.8,1.8-0.8,2.6-0.2L46.7-31.9z M46.7-38.8c0.8,0.7,0.8,1.8,0.2,2.6c-0.7,0.8-1.8,0.8-2.6,0.2
				l-5.5-4.8C38-41.5,38-42.6,38.601-43.4c0.7-0.799,1.8-0.799,2.6-0.199L46.7-38.8z M65.601-31.9c0.8,0.7,0.8,1.801,0.2,2.601
				c-0.7,0.8-1.801,0.8-2.601,0.2L57.7-33.9c-0.8-0.699-0.8-1.8-0.2-2.6c0.7-0.8,1.801-0.8,2.601-0.2L65.601-31.9z M65.601-38.8
				c0.8,0.7,0.8,1.8,0.2,2.6C65.101-35.4,64-35.4,63.2-36l-5.5-4.8c-0.8-0.7-0.8-1.8-0.2-2.601c0.7-0.799,1.801-0.799,2.601-0.199
				L65.601-38.8z"/>
		</g>
		<g>
			<path fill="#8F774E" d="M75.7-28.7V0h75.7v-28.7H75.7z"/>
		</g>
		<g>
			<path fill="#8F774E" d="M0-28.7V0h75.801v-28.7H0z"/>
			<path fill="#715725" d="M10.4-28.1c-0.8,0.699-0.8,1.8-0.2,2.6c0.7,0.8,1.8,0.8,2.601,0.2l5.5-4.8c0.8-0.7,0.8-1.801,0.199-2.601
				c-0.699-0.8-1.8-0.8-2.6-0.2L10.4-28.1z M29.4-28.1c-0.8,0.699-0.8,1.8-0.2,2.6c0.7,0.8,1.8,0.8,2.601,0.2l5.5-4.8
				c0.8-0.7,0.8-1.801,0.199-2.601c-0.699-0.8-1.8-0.8-2.6-0.2L29.4-28.1z M48.301-28.1c-0.801,0.699-0.801,1.8-0.2,2.6
				c0.7,0.8,1.8,0.8,2.6,0.2l5.5-4.8C57-30.8,57-31.9,56.4-32.7c-0.7-0.8-1.8-0.8-2.6-0.2L48.301-28.1z M67.2-28.1
				c-0.8,0.699-0.8,1.8-0.2,2.6c0.7,0.8,1.801,0.8,2.601,0.2l5.5-4.8c0.8-0.7,0.8-1.801,0.2-2.601c-0.7-0.8-1.801-0.8-2.601-0.2
				L67.2-28.1z M10.4-21c-0.8,0.7-0.8,1.8-0.2,2.6c0.7,0.801,1.8,0.801,2.601,0.2l5.5-4.8c0.8-0.7,0.8-1.8,0.199-2.6
				c-0.699-0.801-1.8-0.801-2.6-0.2L10.4-21z M29.4-21c-0.8,0.7-0.8,1.8-0.2,2.6c0.7,0.801,1.8,0.801,2.601,0.2l5.5-4.8
				c0.8-0.7,0.8-1.8,0.199-2.6c-0.699-0.801-1.8-0.801-2.6-0.2L29.4-21z M48.301-21c-0.801,0.7-0.801,1.8-0.2,2.6
				c0.7,0.801,1.8,0.801,2.6,0.2l5.5-4.8c0.8-0.7,0.8-1.8,0.2-2.6c-0.7-0.801-1.8-0.801-2.6-0.2L48.301-21z M67.2-21
				c-0.8,0.7-0.8,1.8-0.2,2.6c0.7,0.801,1.801,0.801,2.601,0.2l5.5-4.8c0.8-0.7,0.8-1.8,0.2-2.6C74.601-26.4,73.5-26.4,72.7-25.8
				L67.2-21z M10.4-13.8c-0.8,0.7-0.8,1.8-0.2,2.6c0.7,0.8,1.8,0.8,2.601,0.2l5.5-4.8c0.8-0.7,0.8-1.8,0.199-2.601
				c-0.699-0.8-1.8-0.8-2.6-0.199L10.4-13.8z M29.4-13.8c-0.8,0.7-0.8,1.8-0.2,2.6c0.7,0.8,1.8,0.8,2.601,0.2l5.5-4.8
				c0.8-0.7,0.8-1.8,0.199-2.601c-0.699-0.8-1.8-0.8-2.6-0.199L29.4-13.8z M48.301-13.8c-0.801,0.7-0.801,1.8-0.2,2.6
				c0.7,0.8,1.8,0.8,2.6,0.2l5.5-4.8c0.8-0.7,0.8-1.8,0.2-2.601c-0.7-0.8-1.8-0.8-2.6-0.199L48.301-13.8z M67.2-13.8
				c-0.8,0.7-0.8,1.8-0.2,2.6c0.7,0.8,1.801,0.8,2.601,0.2l5.5-4.8c0.8-0.7,0.8-1.8,0.2-2.601c-0.7-0.8-1.801-0.8-2.601-0.199
				L67.2-13.8z M8.801-24.5C9.601-23.9,9.7-22.7,9-22c-0.699,0.8-1.8,0.8-2.6,0.2L1-26.5c-0.8-0.7-0.8-1.8-0.199-2.6
				C1.5-29.9,2.601-29.9,3.4-29.3L8.801-24.5z M27.801-24.5c0.8,0.7,0.8,1.8,0.199,2.6c-0.699,0.801-1.8,0.801-2.6,0.2l-5.5-4.8
				c-0.8-0.7-0.8-1.8-0.2-2.6c0.7-0.801,1.8-0.801,2.601-0.2L27.801-24.5z M8.801-17.4C9.601-16.7,9.7-15.6,9-14.8
				C8.301-14,7.2-14,6.4-14.6L1-19.4C0.2-20.1,0.2-21.2,0.801-22c0.699-0.8,1.8-0.8,2.6-0.199L8.801-17.4z M27.801-17.4
				c0.8,0.7,0.8,1.801,0.199,2.601c-0.699,0.8-1.8,0.8-2.6,0.2L19.9-19.4c-0.8-0.699-0.8-1.8-0.2-2.6c0.7-0.8,1.8-0.8,2.601-0.2
				L27.801-17.4z M46.7-24.5c0.8,0.7,0.8,1.8,0.2,2.6c-0.7,0.801-1.8,0.801-2.6,0.2l-5.5-4.8C38-27.2,38-28.3,38.601-29.1
				c0.7-0.801,1.8-0.801,2.6-0.2L46.7-24.5z M65.601-24.5c0.8,0.7,0.8,1.8,0.2,2.6C65.101-21.1,64-21.1,63.2-21.7l-5.5-4.8
				c-0.8-0.7-0.8-1.8-0.2-2.6c0.7-0.801,1.801-0.801,2.601-0.2L65.601-24.5z M46.7-17.4c0.8,0.7,0.8,1.801,0.2,2.601
				c-0.7,0.8-1.8,0.8-2.6,0.2l-5.5-4.801C38-20.1,38-21.2,38.601-22c0.7-0.8,1.8-0.8,2.6-0.2L46.7-17.4z M65.601-17.4
				c0.8,0.7,0.8,1.801,0.2,2.601C65.101-14,64-14,63.2-14.6L57.7-19.4c-0.8-0.699-0.8-1.8-0.2-2.6c0.7-0.8,1.801-0.8,2.601-0.2
				L65.601-17.4z"/>
		</g>
	</g>
</pattern>
<g>
	<path fill="#1E1E1E" d="M333.64,311.007c59.4,0,107.5-48.101,107.5-107.5c0-59.4-48.1-107.5-107.5-107.5s-107.5,48.1-107.5,107.5
		C226.14,262.906,274.24,311.007,333.64,311.007z"/>
	<path fill="#1E1E1E" d="M333.64,313.207c-60.5,0-109.699-49.2-109.699-109.7s49.199-109.7,109.699-109.7
		s109.699,49.2,109.699,109.7S394.041,313.207,333.64,313.207z M333.64,98.306c-58,0-105.199,47.2-105.199,105.2
		s47.199,105.2,105.199,105.2s105.199-47.2,105.199-105.2S391.64,98.306,333.64,98.306z"/>
</g>
<path fill="#FAB591" d="M433.541,237.707c-3.1-2.9-4.6-6-4.6-6c-3.701-4.601-20.701-24.9-20.701-24.9c-9,6.6-14.9-0.1-14.9-0.1
	c-0.6-4.2,2.801-9.301,2.801-9.301c4.5-5.8,15.6,0.101,15.6,0.101c14,6.899,26.6,28.1,26.6,28.1"/>
<path fill="#FFFFFF" d="M389.567,178.861c2.012-0.947,4.617-0.592,6.629-0.355c3.316,0.237,6.158,0.829,8.997,2.486
	c1.54,0.948,4.382,3.316,5.448,4.144c0.354,0.237,0.472-0.473,0.945-0.355c0.593,0.237,1.302,0.474,1.895,0.829
	c2.605,1.658,7.815,4.025,7.224,7.34c-0.475,2.605-2.25,5.09-3.79,7.104c-1.066,1.539-3.67,4.735-4.262,6.392
	c-1.42-0.828-8.523-4.616-8.879-7.103c-1.776,0.592-1.54,0.592-2.96-0.118c-2.96-1.302-5.445-2.842-7.695-5.209
	c-1.895-1.894-8.17-8.168-6.868-11.602C386.25,182.531,388.027,179.572,389.567,178.861z"/>
<path fill="#D1D3D4" d="M410.641,185.135l0.118,0.119l0.474,0.473c0.118,0.237,0.354,0.474,0.472,0.829
	c0.12,0.355,0.238,0.711,0.238,1.184c0.118,0.829,0,1.895-0.238,2.959c-0.118,0.474-0.235,1.066-0.472,1.539
	c-0.238,0.474-0.474,1.066-0.712,1.54c-0.472,1.065-1.184,2.012-1.776,2.84c-0.71,0.829-1.419,1.539-2.129,2.013
	c-0.356,0.237-0.71,0.474-1.066,0.592c-0.356,0.118-0.592,0.237-0.948,0.237c-0.472,0-0.827-0.119-0.827,0c0,0,0.117,0,0.235-0.119
	c0.12,0,0.356-0.118,0.475-0.236c0.237-0.119,0.474-0.237,0.709-0.474c0.238-0.237,0.475-0.474,0.83-0.71
	c0.475-0.592,1.066-1.303,1.658-2.132c0.472-0.828,1.063-1.776,1.538-2.723c0.474-0.947,0.948-1.894,1.184-2.841
	c0.118-0.474,0.356-0.948,0.474-1.303c0.118-0.473,0.236-0.829,0.236-1.184s0.12-0.71,0.12-1.065c0-0.356,0-0.592-0.12-0.829
	c-0.118-0.237-0.118-0.355-0.236-0.474C410.759,185.135,410.641,185.135,410.641,185.135z"/>
<path fill="#FAB591" d="M358.549,210.116c6.865,5.683-1.184,18.351-1.184,18.351c-9.592,16.101-37.058,29.598-37.058,29.598
	c-16.456,7.695-28.531,9.234-28.531,9.234c-2.132,0.237-6.629,2.959-6.629,2.959c-18.942,8.524-23.798,2.723-23.798,2.723
	c-5.089-4.261,5.802-6.156,5.802-6.156c4.735-0.947,13.853-2.368,13.853-2.368c-7.578-2.131-5.566-4.736-5.566-4.736
	c2.368-1.657,11.247,1.776,11.247,1.776c4.026,0.829,10.655-1.539,10.655-1.539c12.905-6.037,19.181-10.063,19.181-10.063
	c19.534-8.405,30.661-34.451,30.661-34.451C352.509,215.089,358.549,210.116,358.549,210.116L358.549,210.116z"/>
<path fill="#FFFFFF" d="M366.716,215.799c0.83,2.723-0.472,5.802-1.184,8.287c-1.184,4.026-2.604,7.341-5.563,10.418
	c-1.54,1.658-5.563,4.499-6.868,5.682c-0.472,0.356,0.475,0.711,0.121,1.303c-0.475,0.71-0.948,1.539-1.54,2.131
	c-2.725,2.723-7.222,8.642-11.483,6.985c-3.315-1.303-6.04-4.144-8.407-6.511c-1.656-1.658-3.432-4.618-5.445-5.92
	c1.422-1.54,6.511-10.419,9.827-10.182c-0.356-2.368-0.356-2.013,0.945-3.669c2.488-3.315,5.092-6.039,8.762-8.169
	c2.96-1.776,12.787-7.933,17.049-5.446C362.811,210.708,366.125,213.786,366.716,215.799z"/>
<pattern  id="SVGID_3_" xlink:href="#SVGID_1_" patternTransform="matrix(0.6215 -0.5466 -0.5466 -0.6215 -7718.1313 -9468.0557)">
</pattern>
<path fill="url(#SVGID_3_)" d="M388.739,221.6c-3.552,0.236-19.416-5.21-19.416-5.21c-5.92-6.274-14.563-8.997-14.563-8.997
	c-6.037,4.024-7.104,7.813-7.104,7.813c15.155,8.879,14.207,16.93,14.207,16.93c24.271,27.821,43.687,44.87,43.687,44.87
	c6.275-1.776,19.179-14.444,19.179-14.444L388.739,221.6"/>
<pattern  id="SVGID_4_" xlink:href="#SVGID_2_" patternTransform="matrix(0.6215 -0.5466 -0.5466 -0.6215 -7718.1313 -9468.0557)">
</pattern>
<path fill="url(#SVGID_4_)" d="M388.739,221.6c0.71-3.552-2.724-19.891-2.724-19.891c-5.445-6.629-6.985-15.509-6.985-15.509
	c4.735-5.445,8.644-6.037,8.644-6.037c6.865,16.218,17.876,19.06,17.876,19.06c24.506,27.585,35.991,46.172,35.991,46.172
	c-1.54,3.789-16.813,17.167-16.813,17.167L388.739,221.6"/>
<path fill="#D1D3D4" d="M353.101,240.186c0,0-0.117,0-0.235,0.119c-0.118,0.118-0.474,0.118-0.71,0.118c-0.356,0-0.71,0-1.066-0.118
	c-0.474-0.119-0.827-0.237-1.419-0.354c-0.475-0.119-0.948-0.356-1.54-0.592c-0.592-0.237-1.066-0.592-1.658-0.829
	c-1.184-0.711-2.25-1.421-3.434-2.25c-1.063-0.829-2.248-1.657-3.195-2.605c-0.948-0.828-1.776-1.776-2.368-2.604
	c-0.356-0.356-0.592-0.829-0.71-1.184c-0.238-0.356-0.356-0.711-0.474-0.948c-0.118-0.235-0.118-0.473-0.118-0.709v-0.237
	c0,0-0.238,0.355-0.238,0.947c0,0.356,0,0.711,0.12,1.184c0.118,0.474,0.236,0.948,0.472,1.421c0.474,1.066,1.184,2.131,2.014,3.197
	c0.946,1.066,2.012,2.131,3.196,2.96c0.592,0.474,1.184,0.829,1.894,1.184c0.592,0.355,1.304,0.71,2.014,0.947
	c1.302,0.592,2.604,0.947,3.788,1.066c0.592,0.118,1.184,0,1.657,0c0.475-0.119,0.948-0.237,1.185-0.355
	c0.355-0.119,0.592-0.237,0.71-0.356C352.984,240.305,353.101,240.186,353.101,240.186z"/>
<circle fill="#3C2415" cx="390.041" cy="223.376" r="4.144"/>
<circle fill="#3C2415" cx="403.417" cy="236.517" r="4.144"/>
<g>
	<path fill="#AE3B34" d="M333.64,81.606c-67.301,0-121.9,54.601-121.9,121.9s54.6,121.899,121.9,121.899s121.9-54.6,121.9-121.899
		C455.441,136.207,400.941,81.606,333.64,81.606z M333.64,312.707c-59.699,0-108.199-48.4-108.199-108.2
		c0-59.7,48.398-108.2,108.199-108.2s108.199,48.4,108.199,108.2C441.74,264.306,393.339,312.707,333.64,312.707L333.64,312.707z"/>
	<path fill="#AE3B34" d="M333.64,328.406c-68.9,0-124.9-56-124.9-124.899c0-68.9,56-124.9,124.9-124.9s124.9,56,124.9,124.9
		C458.441,272.406,402.441,328.406,333.64,328.406z M333.64,84.606c-65.5,0-118.9,53.3-118.9,118.9
		c0,65.5,53.301,118.899,118.9,118.899c65.5,0,118.9-53.3,118.9-118.899C452.441,138.007,399.14,84.606,333.64,84.606z
		 M333.64,315.707c-61.301,0-111.199-49.9-111.199-111.2S272.339,93.406,333.64,93.406s111.199,49.9,111.199,111.2
		S394.839,315.707,333.64,315.707L333.64,315.707z M333.64,99.406c-58,0-105.199,47.2-105.199,105.2S275.64,309.707,333.64,309.707
		s105.199-47.2,105.199-105.2S391.541,99.406,333.64,99.406z"/>
</g>
<g>
	<path fill="#772725" d="M226.339,203.406c0,0-0.299,0.2-0.699,0.301c-0.5,0.199-1.1,0.399-1.9,0.6c-0.799,0.2-1.699,0.3-2.699,0.3
		s-2.1-0.2-3.1-0.3c-1.102-0.1-2.102-0.2-3.102-0.3c-1-0.101-1.898-0.2-2.699-0.3c-1.6-0.2-2.699-0.301-2.699-0.301v-0.3
		c0,0,1.1-0.2,2.699-0.3c0.801-0.1,1.699-0.2,2.699-0.3c1-0.101,2.102-0.2,3.102-0.3c1.1-0.101,2.1-0.301,3.1-0.301
		s1.9,0.101,2.699,0.301c0.801,0.199,1.5,0.399,1.9,0.6c0.5,0.2,0.699,0.3,0.699,0.3V203.406z M304.14,100.007
		c0,0-0.199-0.2-0.5-0.7c-0.301-0.4-0.6-1-0.9-1.8c-0.299-0.8-0.6-1.7-0.799-2.601c-0.201-1-0.102-2.1-0.201-3.1
		c-0.1-1.1-0.199-2.1-0.299-3.1c-0.102-1-0.102-1.9-0.201-2.801c-0.1-1.6-0.1-2.699-0.1-2.699h0.301c0,0,0.299,1,0.799,2.6
		c0.201,0.8,0.5,1.7,0.801,2.6c0.299,1,0.5,2,0.799,3c0.301,1,0.701,2.101,0.9,3c0.201,1,0.201,1.9,0.201,2.801
		c0,0.8-0.102,1.5-0.301,2c-0.1,0.5-0.199,0.8-0.199,0.8H304.14z M279.839,110.306c0,0-0.299-0.1-0.699-0.4
		c-0.4-0.3-1-0.699-1.6-1.199s-1.301-1.2-1.9-2c-0.6-0.801-1-1.801-1.6-2.7c-0.6-0.9-1.1-1.8-1.701-2.7c-0.5-0.9-1-1.7-1.398-2.4
		c-0.801-1.399-1.301-2.3-1.301-2.3l0.199-0.2l1.9,1.9c0.6,0.6,1.201,1.3,1.9,2s1.4,1.5,2.1,2.3c0.701,0.8,1.5,1.5,2.1,2.3
		c0.602,0.801,1,1.601,1.4,2.4c0.301,0.8,0.6,1.4,0.701,1.9c0.1,0.5,0.199,0.8,0.199,0.8L279.839,110.306z M248.24,138.306h-0.799
		c-0.5,0-1.201-0.1-2-0.3c-0.801-0.2-1.701-0.5-2.602-0.9c-0.898-0.5-1.799-1.1-2.699-1.7c-0.9-0.6-1.9-1.1-2.699-1.699
		c-0.9-0.5-1.701-1.101-2.4-1.5c-1.4-0.9-2.301-1.5-2.301-1.5l0.1-0.2c0,0,1,0.3,2.602,0.899c0.799,0.301,1.699,0.601,2.6,0.9
		c1,0.3,2,0.8,3,1.1c1,0.4,2.1,0.7,3,1.101c0.9,0.399,1.699,1,2.299,1.5c0.602,0.5,1.201,1,1.5,1.399c0.301,0.4,0.5,0.601,0.5,0.601
		L248.24,138.306z M234.14,163.106c0,0-0.301,0.101-0.801,0.2s-1.199,0.2-2,0.2c-0.799,0-1.699,0-2.699-0.2s-2-0.7-3-1l-3-0.9
		c-1-0.3-1.801-0.6-2.6-0.899c-1.5-0.5-2.5-0.9-2.5-0.9l0.1-0.3c0,0,1.1,0.1,2.699,0.2c0.801,0.1,1.701,0.1,2.701,0.2
		c1,0.1,2,0.199,3.1,0.399c1,0.101,2.1,0.101,3.1,0.3c1,0.2,1.801,0.5,2.6,0.9c0.701,0.3,1.301,0.7,1.801,1c0.4,0.3,0.6,0.5,0.6,0.5
		L234.14,163.106z M333.441,95.906c0,0-0.201-0.3-0.301-0.699c-0.199-0.5-0.4-1.101-0.6-1.9c-0.201-0.8-0.301-1.7-0.301-2.7
		s0.201-2.1,0.301-3.1c0.1-1.101,0.199-2.101,0.299-3.101c0.102-1,0.201-1.899,0.301-2.699c0.199-1.601,0.301-2.7,0.301-2.7h0.299
		c0,0,0.201,1.1,0.301,2.7c0.1,0.8,0.199,1.699,0.299,2.699c0.102,1,0.201,2.101,0.301,3.101c0.1,1.1,0.301,2.1,0.301,3.1
		s-0.102,1.9-0.301,2.7s-0.4,1.5-0.6,1.9c-0.201,0.5-0.301,0.699-0.301,0.699H333.441z M319.74,96.507c0,0-0.199-0.2-0.4-0.7
		c-0.299-0.4-0.5-1.1-0.799-1.8c-0.301-0.8-0.5-1.7-0.6-2.601c-0.102-1,0-2,0-3.1s-0.102-2.1-0.102-3.1v-2.7v-2.601h0.301
		c0,0,0.301,1,0.6,2.601c0.201,0.8,0.4,1.7,0.6,2.6l0.602,3c0.199,1,0.5,2.101,0.699,3c0.1,1,0.1,1.9,0,2.7s-0.199,1.5-0.4,2
		c-0.1,0.5-0.299,0.8-0.299,0.8L319.74,96.507z M291.339,104.507c0,0-0.299-0.2-0.6-0.5c-0.4-0.4-0.799-0.9-1.299-1.5
		c-0.5-0.7-1-1.5-1.4-2.4c-0.4-0.899-0.6-2-0.9-3s-0.699-2-1-3s-0.6-1.899-0.801-2.6c-0.398-1.601-0.699-2.601-0.699-2.601
		l0.199-0.1c0,0,0.602,0.9,1.4,2.3c0.4,0.7,0.9,1.5,1.4,2.4c0.5,0.899,1,1.8,1.5,2.8c0.5,0.9,1.1,1.8,1.5,2.8
		c0.4,0.9,0.6,1.8,0.801,2.601c0.1,0.8,0.199,1.5,0.199,2v0.8H291.339z M257.339,127.707c0,0-0.299,0-0.799-0.101
		c-0.5-0.1-1.201-0.3-1.9-0.6c-0.801-0.3-1.6-0.8-2.4-1.3c-0.799-0.601-1.6-1.4-2.4-2.101c-0.799-0.7-1.699-1.399-2.398-2.1
		c-0.801-0.7-1.5-1.3-2.102-1.9c-1.199-1.1-2-1.8-2-1.8l0.201-0.2c0,0,1,0.5,2.4,1.3c0.699,0.4,1.5,0.801,2.398,1.301
		c0.9,0.5,1.801,1.1,2.701,1.6c0.9,0.6,1.9,1,2.799,1.6c0.801,0.601,1.5,1.2,2.102,1.9c0.5,0.6,1,1.2,1.199,1.6
		c0.301,0.4,0.4,0.7,0.4,0.7L257.339,127.707z M267.24,118.906c0,0-0.299-0.1-0.699-0.3c-0.5-0.2-1-0.6-1.701-1.1
		c-0.699-0.5-1.398-1.101-2-1.9c-0.6-0.8-1.199-1.7-1.799-2.6c-0.6-0.9-1.301-1.7-1.801-2.601c-0.6-0.8-1.1-1.6-1.5-2.3
		c-0.9-1.3-1.5-2.2-1.5-2.2l0.201-0.199c0,0,0.799,0.699,2,1.8c0.6,0.5,1.299,1.2,2,1.899c0.699,0.7,1.5,1.4,2.199,2.2
		s1.6,1.4,2.301,2.2c0.6,0.8,1.1,1.6,1.5,2.3c0.398,0.7,0.6,1.4,0.799,1.9c0.201,0.5,0.201,0.8,0.201,0.8L267.24,118.906z
		 M240.64,150.007c0,0-0.301,0.1-0.801,0.1c-0.5,0.101-1.199,0.101-2.1,0c-0.799-0.1-1.799-0.2-2.799-0.5s-2-0.8-3-1.2
		c-1-0.399-2.102-0.8-3-1.199c-1-0.4-1.801-0.801-2.602-1.101c-1.5-0.6-2.5-1.1-2.5-1.1l0.102-0.3c0,0,1.1,0.199,2.699,0.5
		c0.801,0.1,1.801,0.3,2.801,0.5c1,0.199,2.1,0.399,3.199,0.699c1.1,0.2,2.199,0.301,3.199,0.601s1.9,0.7,2.602,1.1
		c0.699,0.4,1.299,0.8,1.699,1.101c0.4,0.3,0.6,0.5,0.6,0.5L240.64,150.007L240.64,150.007z M227.339,188.306
		c0,0-0.299,0.1-0.799,0.3s-1.201,0.3-2,0.5c-0.801,0.101-1.801,0.2-2.801,0.101c-1-0.101-2.1-0.4-3.1-0.5
		c-1.1-0.2-2.1-0.301-3.1-0.5c-1-0.2-1.9-0.301-2.701-0.5c-1.6-0.301-2.699-0.5-2.699-0.5v-0.301c0,0,1.1-0.1,2.699-0.199
		c0.801,0,1.801-0.101,2.801-0.101s2.1-0.1,3.199-0.1c1.102,0,2.201-0.2,3.201-0.101c1,0.101,1.9,0.301,2.699,0.5
		c0.801,0.2,1.4,0.5,1.9,0.7s0.699,0.4,0.699,0.4V188.306L227.339,188.306z M213.14,172.507h2.699c0.801,0,1.801,0,2.801,0.1
		c1,0,2.1,0.101,3.199,0.2c1.102,0.1,2.201,0,3.201,0.1c1,0.101,1.9,0.4,2.699,0.7c0.801,0.3,1.4,0.601,1.801,0.9
		s0.699,0.399,0.699,0.399v0.301c0,0-0.299,0.1-0.799,0.199c-0.5,0.101-1.201,0.2-2,0.301c-0.801,0.1-1.801,0.1-2.801-0.101
		s-2-0.5-3.1-0.8c-1-0.2-2.1-0.5-3.1-0.7s-1.9-0.5-2.701-0.7c-1.6-0.399-2.6-0.699-2.6-0.699V172.507L213.14,172.507z
		 M304.441,307.106c0,0,0.1,0.3,0.199,0.8s0.199,1.2,0.301,2c0,0.801,0,1.801-0.201,2.801c-0.199,1-0.6,2-0.9,3
		c-0.299,1-0.5,2.1-0.799,3c-0.301,1-0.5,1.899-0.801,2.6c-0.5,1.5-0.799,2.6-0.799,2.6h-0.301c0,0,0-1.1,0.1-2.699
		c0-0.801,0.1-1.801,0.201-2.801c0.1-1,0.199-2.1,0.299-3.1c0.1-1.1,0.1-2.2,0.201-3.2c0.199-1,0.5-1.899,0.799-2.6
		c0.301-0.8,0.6-1.4,0.9-1.8c0.301-0.4,0.5-0.7,0.5-0.7L304.441,307.106z M280.041,296.906c0,0,0,0.301-0.201,0.801
		c-0.1,0.5-0.398,1.199-0.699,1.899s-0.801,1.601-1.4,2.4s-1.4,1.5-2.1,2.3s-1.4,1.6-2.1,2.3c-0.701,0.7-1.301,1.4-1.9,2
		c-1.1,1.2-1.9,1.9-1.9,1.9l-0.199-0.2c0,0,0.5-1,1.299-2.4c0.4-0.699,0.9-1.5,1.4-2.399c0.5-0.9,1.1-1.8,1.701-2.7
		c0.6-0.9,1-1.9,1.6-2.7s1.299-1.5,1.9-2c0.6-0.5,1.199-0.899,1.6-1.2c0.4-0.3,0.699-0.399,0.699-0.399L280.041,296.906z
		 M248.339,269.007c0,0-0.199,0.3-0.5,0.6c-0.299,0.4-0.898,0.9-1.5,1.4c-0.699,0.5-1.398,1.1-2.299,1.5c-0.9,0.399-2,0.7-3,1.1
		c-1,0.4-2,0.8-3,1.101c-1,0.399-1.9,0.699-2.6,0.899c-1.5,0.601-2.602,0.9-2.602,0.9l-0.1-0.2c0,0,0.9-0.6,2.301-1.5
		c0.699-0.4,1.5-1,2.4-1.5c0.898-0.5,1.799-1.1,2.699-1.7c0.9-0.5,1.801-1.2,2.699-1.7c0.9-0.5,1.801-0.699,2.602-0.899
		c0.799-0.2,1.5-0.3,2-0.3h0.799L248.339,269.007L248.339,269.007z M234.14,244.207c0,0-0.199,0.199-0.6,0.5c-0.4,0.3-1,0.6-1.801,1
		c-0.699,0.3-1.6,0.699-2.6,0.899s-2.1,0.2-3.1,0.3c-1.1,0.101-2.1,0.301-3.1,0.4s-1.9,0.2-2.701,0.3
		c-1.6,0.101-2.699,0.2-2.699,0.2l-0.1-0.3c0,0,1-0.4,2.5-0.9c0.799-0.3,1.6-0.6,2.6-0.899c0.9-0.301,2-0.601,3-0.9s2-0.7,3-0.9
		c1-0.199,1.9-0.3,2.699-0.199c0.801,0,1.5,0.1,2,0.199c0.5,0.101,0.801,0.2,0.801,0.2L234.14,244.207z M333.74,311.207
		c0,0,0.201,0.3,0.301,0.699c0.199,0.5,0.4,1.101,0.6,1.9s0.301,1.7,0.301,2.7s-0.201,2.1-0.301,3.1
		c-0.1,1.101-0.199,2.101-0.301,3.101c-0.1,1-0.199,1.899-0.299,2.7c-0.201,1.6-0.301,2.699-0.301,2.699h-0.299
		c0,0-0.201-1.1-0.301-2.699c-0.1-0.801-0.199-1.7-0.301-2.7c-0.1-1-0.199-2.101-0.299-3.101c-0.1-1.1-0.301-2.1-0.301-3.1
		s0.1-1.9,0.301-2.7c0.199-0.8,0.4-1.5,0.6-1.9c0.199-0.5,0.301-0.699,0.301-0.699H333.74z M320.041,310.507c0,0,0.1,0.3,0.299,0.8
		c0.102,0.5,0.301,1.2,0.4,2s0.1,1.7,0,2.7s-0.5,2-0.699,3c-0.201,1-0.4,2.1-0.6,3c-0.201,1-0.4,1.899-0.602,2.6
		c-0.398,1.5-0.6,2.601-0.6,2.601h-0.299v-2.601v-2.7c0-1,0-2,0.1-3.1c0-1.1-0.1-2.1,0-3.1s0.4-1.9,0.6-2.601
		c0.301-0.8,0.6-1.399,0.801-1.8c0.199-0.4,0.398-0.7,0.398-0.7L320.041,310.507L320.041,310.507z M291.541,302.606v0.8
		c0,0.5-0.1,1.2-0.201,2c-0.1,0.801-0.398,1.7-0.799,2.601c-0.4,0.899-1,1.8-1.5,2.7c-0.5,0.899-1,1.899-1.5,2.8
		c-0.5,0.899-1,1.7-1.4,2.399c-0.801,1.4-1.4,2.301-1.4,2.301l-0.199-0.101c0,0,0.299-1,0.699-2.6c0.201-0.8,0.5-1.7,0.801-2.601
		c0.299-1,0.6-2,1-3c0.299-1,0.6-2.1,0.9-3c0.398-0.899,0.898-1.699,1.398-2.399s0.9-1.2,1.301-1.5c0.4-0.4,0.6-0.5,0.6-0.5
		L291.541,302.606z M257.541,279.507c0,0-0.1,0.3-0.4,0.7c-0.301,0.399-0.699,1-1.199,1.6c-0.602,0.6-1.201,1.3-2.102,1.9
		c-0.799,0.6-1.799,1-2.799,1.6c-0.9,0.5-1.9,1.1-2.701,1.6c-0.898,0.5-1.699,1-2.398,1.301c-1.4,0.8-2.4,1.3-2.4,1.3l-0.201-0.2
		c0,0,0.801-0.8,2-1.8c0.602-0.5,1.301-1.2,2.102-1.9l2.398-2.1c0.801-0.7,1.602-1.5,2.4-2.101c0.801-0.6,1.701-1,2.4-1.3
		c0.801-0.3,1.4-0.5,1.9-0.6c0.5-0.101,0.799-0.101,0.799-0.101L257.541,279.507z M267.441,288.306c0,0-0.102,0.3-0.201,0.8
		s-0.4,1.101-0.799,1.9c-0.4,0.7-0.9,1.5-1.5,2.3c-0.701,0.7-1.5,1.4-2.301,2.2c-0.801,0.7-1.5,1.5-2.199,2.2
		c-0.701,0.699-1.4,1.3-2,1.899c-1.201,1.101-2,1.8-2,1.8l-0.201-0.199c0,0,0.6-0.9,1.5-2.2c0.4-0.7,1-1.5,1.5-2.3
		c0.6-0.801,1.201-1.7,1.801-2.601c0.6-0.899,1.1-1.8,1.799-2.6c0.602-0.8,1.4-1.4,2-1.9c0.701-0.5,1.301-0.899,1.701-1.1
		s0.699-0.3,0.699-0.3L267.441,288.306z M240.74,257.306c0,0-0.199,0.2-0.6,0.5s-1,0.7-1.699,1.1
		c-0.701,0.4-1.602,0.801-2.602,1.101s-2.1,0.399-3.199,0.6s-2.199,0.5-3.199,0.7s-2,0.4-2.801,0.5c-1.6,0.3-2.699,0.5-2.699,0.5
		l-0.102-0.3c0,0,1-0.5,2.5-1.101c0.801-0.3,1.602-0.699,2.602-1.1l3-1.2c1-0.399,2-0.899,3-1.2c1-0.3,1.898-0.399,2.799-0.5
		c0.801-0.1,1.6-0.1,2.1,0c0.5,0,0.801,0.101,0.801,0.101L240.74,257.306L240.74,257.306z M227.339,219.007
		c0,0-0.299,0.2-0.699,0.399c-0.5,0.2-1.1,0.5-1.9,0.7c-0.799,0.2-1.699,0.4-2.699,0.5c-1,0-2.1-0.1-3.201-0.1
		c-1.1,0-2.199,0-3.199-0.101c-1,0-2-0.1-2.801-0.1c-1.6-0.1-2.699-0.2-2.699-0.2v-0.3c0,0,1.1-0.2,2.699-0.5
		c0.801-0.1,1.701-0.3,2.701-0.5s2.1-0.3,3.1-0.5c1.1-0.1,2.1-0.4,3.1-0.5s2,0,2.801,0.1c0.799,0.101,1.5,0.301,2,0.5
		c0.5,0.2,0.799,0.301,0.799,0.301V219.007L227.339,219.007z M213.041,234.306c0,0,1-0.3,2.6-0.7c0.801-0.2,1.699-0.5,2.699-0.7
		c1-0.3,2-0.5,3.102-0.699c1-0.2,2.1-0.601,3.1-0.801c1-0.1,1.9-0.1,2.799-0.1c0.801,0.1,1.5,0.2,2,0.3
		c0.5,0.101,0.801,0.2,0.801,0.2v0.3c0,0-0.199,0.2-0.699,0.4c-0.4,0.3-1.102,0.6-1.801,0.899c-0.801,0.301-1.699,0.601-2.699,0.7
		c-1,0.101-2.102,0-3.201,0.101c-1.1,0.1-2.1,0.1-3.199,0.199c-1,0-2,0.101-2.801,0.101h-2.699V234.306z M440.839,203.207
		c0,0,0.301-0.2,0.701-0.301c0.5-0.199,1.1-0.399,1.9-0.6c0.799-0.2,1.699-0.3,2.699-0.3s2.1,0.2,3.1,0.3c1.1,0.1,2.1,0.2,3.1,0.3
		c1,0.101,1.9,0.2,2.701,0.3c1.6,0.2,2.699,0.301,2.699,0.301v0.3c0,0-1.1,0.2-2.699,0.3c-0.801,0.1-1.701,0.2-2.701,0.3
		c-1,0.101-2.1,0.2-3.1,0.3c-1.1,0.101-2.1,0.301-3.1,0.301s-1.9-0.101-2.699-0.301c-0.801-0.199-1.5-0.399-1.9-0.6
		c-0.5-0.2-0.701-0.3-0.701-0.3V203.207z M362.74,99.906c0,0-0.1-0.3-0.199-0.8s-0.201-1.2-0.301-2c0-0.8,0-1.8,0.201-2.8
		c0.199-1,0.6-2,0.898-3c0.301-1,0.5-2.1,0.801-3c0.301-1,0.5-1.9,0.801-2.6c0.5-1.5,0.799-2.601,0.799-2.601h0.301
		c0,0,0,1.101-0.1,2.7c0,0.8-0.102,1.7-0.201,2.8c-0.1,1-0.199,2.101-0.299,3.101c-0.102,1.1-0.102,2.199-0.201,3.1
		c-0.199,1-0.5,1.9-0.799,2.6c-0.301,0.801-0.602,1.4-0.9,1.801c-0.301,0.399-0.5,0.699-0.5,0.699H362.74L362.74,99.906z
		 M387.14,110.207c0,0,0-0.301,0.199-0.801c0.102-0.5,0.4-1.199,0.701-1.899c0.299-0.7,0.799-1.601,1.4-2.4
		c0.6-0.8,1.398-1.5,2.1-2.3c0.699-0.8,1.4-1.6,2.1-2.3s1.301-1.4,1.9-2c1.1-1.2,1.9-1.9,1.9-1.9l0.199,0.2c0,0-0.5,1-1.301,2.3
		c-0.398,0.7-0.898,1.5-1.398,2.4c-0.5,0.899-1.102,1.8-1.701,2.7c-0.6,0.899-1,1.899-1.6,2.699c-0.6,0.801-1.301,1.5-1.9,2
		s-1.199,0.9-1.6,1.2s-0.699,0.4-0.699,0.4L387.14,110.207L387.14,110.207z M418.839,138.007c0,0,0.201-0.3,0.5-0.601
		c0.301-0.399,0.801-0.899,1.5-1.399c0.602-0.5,1.4-1.101,2.301-1.5c0.9-0.4,2-0.7,3-1.101c1-0.399,2-0.8,3-1.1
		c1-0.4,1.9-0.7,2.6-0.9c1.5-0.6,2.6-0.899,2.6-0.899l0.102,0.2c0,0-0.9,0.6-2.301,1.5c-0.699,0.399-1.5,1-2.301,1.5
		c-0.898,0.5-1.799,1.1-2.699,1.699c-0.9,0.5-1.801,1.2-2.699,1.7c-0.9,0.4-1.801,0.7-2.602,0.9c-0.799,0.2-1.5,0.3-2,0.3h-0.799
		L418.839,138.007z M433.041,162.806c0,0,0.199-0.2,0.6-0.5s1-0.6,1.801-1c0.699-0.3,1.6-0.7,2.6-0.9c1-0.199,2.1-0.199,3.1-0.3
		c1.1-0.1,2.1-0.3,3.1-0.399c1-0.101,1.9-0.2,2.701-0.2c1.6-0.101,2.699-0.2,2.699-0.2l0.1,0.3c0,0-1,0.4-2.5,0.9
		c-0.799,0.3-1.6,0.6-2.6,0.899c-0.9,0.301-2,0.601-3,0.9s-2,0.7-3,1c-1,0.2-1.9,0.3-2.699,0.2c-0.801,0-1.5-0.101-2-0.2
		s-0.801-0.2-0.801-0.2L433.041,162.806z M347.14,96.507c0,0-0.1-0.3-0.301-0.8c-0.1-0.5-0.299-1.2-0.398-2
		c-0.102-0.801-0.102-1.7,0-2.7c0.1-1,0.5-2,0.699-3s0.4-2.101,0.6-3c0.201-1,0.4-1.9,0.6-2.601c0.4-1.5,0.602-2.6,0.602-2.6h0.299
		v5.3c0,1,0,2-0.1,3.101c0,1.1,0.1,2.1,0,3.1s-0.4,1.9-0.6,2.6c-0.301,0.801-0.6,1.4-0.801,1.801c-0.199,0.399-0.4,0.699-0.4,0.699
		L347.14,96.507L347.14,96.507z M375.64,104.406v-0.8c0-0.5,0.1-1.2,0.199-2c0.201-0.8,0.4-1.7,0.801-2.6c0.4-0.9,1-1.8,1.5-2.8
		c0.5-0.9,1-1.9,1.5-2.801c0.5-0.899,1-1.699,1.4-2.399c0.799-1.4,1.4-2.3,1.4-2.3l0.199,0.1c0,0-0.301,1-0.699,2.6
		c-0.201,0.801-0.5,1.7-0.801,2.601c-0.301,1-0.6,2-1,3c-0.301,1-0.5,2.1-0.9,3c-0.4,0.899-0.9,1.7-1.4,2.399
		c-0.5,0.7-0.898,1.2-1.299,1.5c-0.4,0.4-0.6,0.5-0.6,0.5H375.64L375.64,104.406z M409.64,127.507c0,0,0.1-0.3,0.4-0.7
		c0.299-0.4,0.699-1,1.199-1.6c0.6-0.601,1.201-1.301,2.1-1.9c0.801-0.6,1.801-1,2.801-1.6c0.9-0.5,1.9-1.101,2.699-1.601
		c0.9-0.5,1.701-1,2.4-1.3c1.4-0.8,2.4-1.3,2.4-1.3l0.199,0.2c0,0-0.799,0.8-2,1.8c-0.6,0.5-1.299,1.2-2.1,1.899l-2.4,2.101
		c-0.799,0.7-1.6,1.5-2.398,2.1c-0.801,0.601-1.701,1-2.4,1.3c-0.801,0.301-1.4,0.5-1.9,0.601c-0.5,0.1-0.801,0.1-0.801,0.1
		L409.64,127.507L409.64,127.507z M399.74,118.707c0,0,0.1-0.301,0.201-0.801c0.199-0.5,0.398-1.1,0.799-1.899
		c0.4-0.7,0.9-1.5,1.5-2.3c0.701-0.7,1.5-1.4,2.301-2.2l2.199-2.2c0.701-0.7,1.4-1.3,2-1.9c1.201-1.1,2-1.8,2-1.8l0.201,0.2
		c0,0-0.602,0.9-1.5,2.2c-0.4,0.7-1,1.5-1.5,2.3c-0.602,0.8-1.201,1.7-1.801,2.6c-0.6,0.9-1.1,1.801-1.801,2.601
		c-0.6,0.8-1.398,1.399-2,1.899c-0.699,0.5-1.299,0.9-1.699,1.101s-0.699,0.3-0.699,0.3L399.74,118.707z M426.541,149.806
		c0,0,0.199-0.2,0.6-0.5s1-0.7,1.699-1.1c0.701-0.4,1.602-0.801,2.602-1.101s2.1-0.399,3.199-0.6s2.199-0.5,3.199-0.7
		s2-0.4,2.801-0.5c1.6-0.3,2.699-0.5,2.699-0.5l0.102,0.3c0,0-1,0.5-2.5,1.101c-0.801,0.3-1.602,0.699-2.602,1.1l-3,1.2
		c-1,0.399-2,0.899-3,1.2c-1,0.3-1.898,0.399-2.799,0.5c-0.801,0.1-1.6,0.1-2.1,0c-0.5,0-0.801-0.101-0.801-0.101L426.541,149.806
		L426.541,149.806z M439.839,188.007c0,0,0.301-0.2,0.701-0.4c0.5-0.2,1.1-0.5,1.9-0.7c0.799-0.199,1.699-0.399,2.699-0.5
		c1,0,2.1,0.101,3.199,0.101c1.102,0,2.201,0,3.201,0.1c1,0,2,0.101,2.799,0.101c1.602,0.1,2.701,0.199,2.701,0.199v0.301
		c0,0-1.1,0.199-2.701,0.5c-0.799,0.1-1.699,0.3-2.699,0.5c-1,0.199-2.1,0.3-3.1,0.5c-1.1,0.1-2.1,0.399-3.1,0.5
		c-1,0.1-2,0-2.801-0.101c-0.801-0.1-1.5-0.3-2-0.5s-0.801-0.3-0.801-0.3V188.007L439.839,188.007z M454.14,172.806
		c0,0-1,0.3-2.6,0.7c-0.801,0.2-1.701,0.5-2.701,0.7c-1,0.3-2,0.5-3.1,0.699c-1,0.2-2.1,0.601-3.1,0.801c-1,0.1-1.9,0.1-2.801,0.1
		c-0.799-0.1-1.5-0.2-2-0.3c-0.5-0.101-0.799-0.2-0.799-0.2v-0.3c0,0,0.199-0.2,0.699-0.4c0.4-0.3,1.1-0.6,1.801-0.899
		c0.799-0.301,1.699-0.601,2.699-0.7c1-0.101,2.1-0.101,3.201-0.101c1.1-0.1,2.1-0.1,3.1-0.199c1,0,2-0.101,2.799-0.101h2.701
		L454.14,172.806L454.14,172.806z M363.041,307.106c0,0,0.199,0.2,0.5,0.7c0.299,0.4,0.6,1,0.9,1.8c0.299,0.8,0.6,1.7,0.799,2.601
		c0.201,1,0.1,2.1,0.201,3.199c0.1,1.101,0.199,2.101,0.299,3.101s0.1,1.899,0.201,2.8c0.1,1.6,0.1,2.7,0.1,2.7h-0.301
		c0,0-0.299-1-0.799-2.601c-0.201-0.8-0.5-1.699-0.801-2.6c-0.301-1-0.5-2-0.801-3c-0.299-1-0.699-2.1-0.898-3
		c-0.201-1-0.201-1.9-0.201-2.8c0-0.8,0.1-1.5,0.301-2c0.1-0.5,0.199-0.8,0.199-0.8L363.041,307.106z M387.339,296.707
		c0,0,0.301,0.1,0.701,0.399s1,0.7,1.6,1.2s1.301,1.2,1.9,2s1,1.8,1.6,2.7c0.6,0.899,1.1,1.8,1.699,2.7c0.5,0.899,1,1.699,1.4,2.399
		c0.801,1.4,1.301,2.4,1.301,2.4l-0.201,0.2l-1.898-1.9c-0.602-0.6-1.201-1.3-1.9-2c-0.701-0.7-1.4-1.5-2.1-2.3
		c-0.701-0.8-1.5-1.5-2.102-2.3c-0.6-0.801-1.1-1.601-1.398-2.4c-0.301-0.8-0.602-1.4-0.701-1.9s-0.199-0.8-0.199-0.8
		L387.339,296.707L387.339,296.707z M418.941,268.806h0.799c0.5,0,1.201,0.1,2,0.3c0.801,0.2,1.701,0.5,2.6,0.9
		c0.9,0.5,1.801,1.1,2.701,1.7c0.9,0.6,1.9,1.1,2.699,1.699c0.9,0.5,1.701,1.101,2.301,1.5c1.4,0.9,2.299,1.5,2.299,1.5l-0.1,0.2
		c0,0-1-0.3-2.6-0.899c-0.801-0.301-1.699-0.601-2.6-0.9c-1-0.3-2-0.8-3-1.1c-1-0.4-2.1-0.7-3-1.101c-0.9-0.399-1.701-1-2.301-1.5
		s-1.199-1-1.5-1.399c-0.299-0.4-0.5-0.601-0.5-0.601L418.941,268.806z M433.14,243.906c0,0,0.301-0.1,0.801-0.199
		c0.5-0.101,1.199-0.2,2-0.2c0.799,0,1.699,0,2.699,0.2c1,0.199,2,0.699,3,0.899l3,0.9c1,0.3,1.801,0.6,2.6,0.899
		c1.5,0.5,2.5,0.9,2.5,0.9l-0.1,0.3c0,0-1.1-0.1-2.699-0.2c-0.801-0.1-1.701-0.1-2.701-0.3c-1-0.1-2-0.2-3.1-0.399
		c-1.1-0.101-2.1-0.101-3.1-0.301c-1-0.199-1.801-0.5-2.6-0.899c-0.701-0.3-1.301-0.7-1.801-1c-0.4-0.3-0.6-0.5-0.6-0.5
		L433.14,243.906z M347.441,310.507c0,0,0.199,0.2,0.398,0.7c0.301,0.399,0.5,1.1,0.801,1.8c0.301,0.8,0.5,1.7,0.6,2.6
		c0.1,1,0,2,0,3.101c0,1.1,0.1,2.1,0.1,3.1v5.3h-0.299c0,0-0.301-1-0.6-2.6c-0.201-0.8-0.4-1.7-0.602-2.601l-0.6-3
		c-0.199-1-0.5-2-0.699-3c-0.1-1-0.1-1.899,0-2.699c0.1-0.801,0.199-1.5,0.4-2c0.1-0.5,0.299-0.801,0.299-0.801L347.441,310.507z
		 M375.839,302.507c0,0,0.201,0.2,0.602,0.5c0.398,0.3,0.799,0.899,1.299,1.5c0.5,0.7,1,1.5,1.4,2.399c0.4,0.9,0.6,2,0.9,3
		c0.299,1,0.699,2,1,3c0.299,1,0.6,1.9,0.799,2.601c0.5,1.5,0.701,2.6,0.701,2.6l-0.201,0.101c0,0-0.6-0.9-1.398-2.3
		c-0.4-0.7-0.9-1.5-1.4-2.4s-1-1.8-1.5-2.8c-0.5-0.9-1.1-1.8-1.5-2.7s-0.6-1.8-0.801-2.6c-0.1-0.801-0.199-1.5-0.199-2v-0.801
		L375.839,302.507L375.839,302.507z M409.839,279.306c0,0,0.301,0,0.801,0.1c0.5,0.101,1.199,0.301,1.9,0.601
		c0.799,0.3,1.6,0.8,2.4,1.3c0.799,0.6,1.6,1.4,2.398,2.1c0.801,0.7,1.701,1.4,2.4,2.101c0.801,0.7,1.5,1.3,2.1,1.899
		c1.201,1.101,2,1.801,2,1.801l-0.199,0.199c0,0-1-0.5-2.4-1.3c-0.699-0.399-1.5-0.8-2.4-1.3c-0.898-0.5-1.799-1.1-2.699-1.6
		c-0.9-0.601-1.9-1-2.801-1.601c-0.799-0.6-1.5-1.2-2.1-1.899c-0.5-0.601-1-1.2-1.199-1.601c-0.301-0.399-0.4-0.7-0.4-0.7
		L409.839,279.306L409.839,279.306z M399.941,288.207c0,0,0.299,0.1,0.699,0.3c0.5,0.2,1,0.6,1.699,1.1c0.602,0.5,1.4,1.101,2,1.9
		c0.602,0.8,1.201,1.7,1.801,2.6c0.6,0.9,1.199,1.7,1.801,2.601c0.6,0.8,1.1,1.6,1.5,2.3c0.898,1.3,1.5,2.2,1.5,2.2l-0.201,0.199
		c0,0-0.799-0.699-2-1.8c-0.6-0.5-1.299-1.2-2-1.899c-0.699-0.7-1.5-1.4-2.199-2.2c-0.801-0.8-1.6-1.4-2.301-2.2
		c-0.6-0.8-1.1-1.6-1.5-2.3s-0.6-1.4-0.799-1.9c-0.201-0.5-0.201-0.8-0.201-0.8L399.941,288.207z M426.541,257.007
		c0,0,0.299-0.101,0.799-0.101c0.5-0.1,1.201-0.1,2.102,0c0.799,0.101,1.799,0.2,2.799,0.5c1,0.301,2,0.801,3,1.2
		c1,0.4,2.1,0.8,3,1.2c1,0.4,1.801,0.8,2.6,1.1c1.5,0.7,2.5,1.101,2.5,1.101l-0.1,0.3c0,0-1.1-0.2-2.699-0.5
		c-0.801-0.1-1.801-0.3-2.801-0.5s-2.1-0.4-3.199-0.7c-1.1-0.2-2.201-0.3-3.201-0.6s-1.898-0.7-2.6-1.101
		c-0.699-0.399-1.299-0.8-1.699-1.1s-0.602-0.5-0.602-0.5L426.541,257.007L426.541,257.007z M439.839,218.707
		c0,0,0.301-0.101,0.801-0.301c0.5-0.199,1.199-0.3,2-0.5c0.801-0.1,1.801-0.199,2.801-0.1s2.1,0.4,3.1,0.5c1.1,0.2,2.1,0.3,3.1,0.5
		s1.9,0.3,2.699,0.5c1.602,0.3,2.701,0.5,2.701,0.5v0.3c0,0-1.1,0.101-2.701,0.2c-0.799,0-1.799,0.1-2.799,0.1
		s-2.1,0.101-3.201,0.101c-1.1,0-2.199,0.2-3.199,0.1c-1-0.1-1.9-0.3-2.699-0.5c-0.801-0.2-1.4-0.5-1.9-0.7
		c-0.5-0.199-0.701-0.399-0.701-0.399V218.707L439.839,218.707z M454.041,234.507h-2.701c-0.799,0-1.799,0-2.799-0.101
		c-1,0-2.1-0.1-3.1-0.199c-1.102-0.101-2.201,0-3.201-0.101c-1-0.1-1.9-0.399-2.699-0.7c-0.801-0.3-1.4-0.6-1.801-0.899
		s-0.699-0.4-0.699-0.4v-0.3c0,0,0.299-0.1,0.799-0.2c0.5-0.1,1.201-0.2,2-0.3c0.801-0.1,1.801-0.1,2.801,0.1c1,0.2,2,0.5,3.1,0.801
		c1,0.199,2.1,0.5,3.1,0.699c1,0.2,1.9,0.5,2.701,0.7c1.6,0.4,2.6,0.7,2.6,0.7L454.041,234.507z"/>
</g>
<g>

		<ellipse transform="matrix(1 -0.0087 0.0087 1 -1.7668 1.4697)" fill="#009444" cx="168.901" cy="204.845" rx="58.103" ry="142.005"/>
	<path fill="#006838" d="M170.24,349.806c-32.699,0.3-59.9-64.5-60.6-144.4c-0.699-80,25.4-145.199,58.1-145.5
		c32.701-0.3,59.9,64.5,60.6,144.4C228.941,284.306,202.941,349.507,170.24,349.806z M167.74,65.806
		c-31.4,0.3-56.299,62.9-55.699,139.5c0.699,76.7,26.799,138.9,58.1,138.6c31.4-0.3,56.301-62.899,55.699-139.5
		C225.14,127.707,199.14,65.507,167.74,65.806L167.74,65.806z"/>
	<path fill="#006838" d="M192.441,75.806c0,0,0,1,0.1,2.9c0.1,1.899,0.199,4.699,0.299,8.199c0.102,3.5,0.301,7.801,0.4,12.7
		c0.1,4.9,0.301,10.4,0.5,16.5c0.201,6,0.301,12.601,0.5,19.5c0.1,6.9,0.301,14.2,0.4,21.8c0.1,7.601,0.199,15.4,0.301,23.301
		c0.1,7.899,0.199,16,0.299,24c0.1,8.1,0.1,16.1,0.201,24c0,7.899,0.1,15.699,0.1,23.3c0,7.6,0,14.899-0.1,21.8
		c0,6.9-0.102,13.5-0.102,19.5s-0.1,11.6-0.199,16.5s-0.1,9.2-0.199,12.7c-0.102,3.5-0.102,6.3-0.201,8.2
		c0,1.899-0.1,2.899-0.1,2.899s0-1-0.1-2.899c-0.1-1.9-0.201-4.7-0.301-8.2s-0.299-7.8-0.4-12.7c-0.199-4.9-0.299-10.4-0.5-16.5
		c-0.199-6-0.299-12.6-0.5-19.5c-0.1-6.9-0.299-14.2-0.398-21.8c-0.102-7.601-0.201-15.4-0.301-23.3c-0.1-7.9-0.199-16-0.301-24
		c-0.1-8.101-0.1-16.101-0.199-24c0-7.9-0.1-15.7-0.1-23.301c0-7.6,0-14.899,0.1-21.8c0-6.899,0.1-13.5,0.1-19.5
		s0.1-11.6,0.201-16.5c0.1-4.899,0.1-9.2,0.199-12.7s0.1-6.3,0.199-8.199C192.339,76.806,192.441,75.806,192.441,75.806z
		 M206.041,96.306c0,0,0,0.8,0.1,2.4c0.1,1.6,0.199,3.899,0.301,6.899c0.1,3,0.299,6.5,0.398,10.7c0.102,4.1,0.301,8.8,0.4,13.8
		c0.1,5.101,0.301,10.601,0.4,16.4s0.301,11.899,0.4,18.3c0.1,6.3,0.199,12.9,0.299,19.5c0.102,6.7,0.201,13.4,0.201,20.2
		s0.1,13.5,0.1,20.2v19.5c0,6.3,0,12.5-0.1,18.3c0,5.8-0.1,11.3-0.201,16.399c0,5.101-0.1,9.7-0.199,13.801
		c-0.1,4.1-0.199,7.699-0.199,10.699c-0.102,3-0.102,5.301-0.201,6.9c0,1.6-0.1,2.4-0.1,2.4s0-0.801-0.1-2.4s-0.201-3.9-0.301-6.9
		s-0.299-6.5-0.4-10.699c-0.1-4.101-0.299-8.801-0.398-13.801c-0.102-5.1-0.301-10.6-0.4-16.399s-0.301-11.9-0.4-18.3
		c-0.1-6.301-0.199-12.9-0.301-19.5c-0.1-6.7-0.199-13.4-0.199-20.2s-0.1-13.5-0.1-20.2v-19.5c0-6.3,0-12.5,0.1-18.3
		c0-5.8,0.1-11.3,0.1-16.4c0-5.1,0.1-9.7,0.201-13.8c0.1-4.1,0.199-7.7,0.199-10.7c0.1-3,0.1-5.3,0.199-6.899
		C206.041,97.106,206.041,96.306,206.041,96.306z M216.839,126.707c0,0,0,0.6,0.102,1.699c0.1,1.101,0.199,2.801,0.299,4.9
		s0.301,4.7,0.4,7.7s0.301,6.3,0.4,9.899c0.1,3.601,0.299,7.601,0.4,11.801c0.1,4.199,0.299,8.6,0.398,13.1
		c0.102,4.6,0.201,9.3,0.301,14c0.1,4.8,0.1,9.6,0.199,14.5c0,4.9,0.102,9.7,0.102,14.5v14c0,4.6-0.102,9-0.102,13.1
		c0,4.2-0.1,8.101-0.199,11.801c-0.1,3.6-0.199,7-0.199,9.899c-0.102,3-0.201,5.5-0.201,7.7c-0.1,2.1-0.199,3.8-0.199,4.9
		c-0.1,1.1-0.1,1.699-0.1,1.699s0-0.6-0.102-1.699c-0.1-1.101-0.199-2.801-0.299-4.9s-0.301-4.7-0.4-7.7s-0.301-6.3-0.4-9.899
		c-0.1-3.601-0.299-7.601-0.4-11.801c-0.1-4.199-0.299-8.6-0.398-13.1c-0.102-4.6-0.201-9.3-0.301-14c-0.1-4.8-0.1-9.6-0.199-14.5
		c0-4.9-0.102-9.7-0.102-14.5v-14c0-4.6,0.102-9,0.102-13.1c0-4.2,0.1-8.101,0.199-11.801c0.1-3.6,0.199-7,0.199-10
		c0.102-3,0.201-5.5,0.201-7.699c0.1-2.101,0.199-3.801,0.199-4.9C216.74,127.306,216.839,126.707,216.839,126.707z M176.64,62.906
		c0,0,0,1.101,0.1,3.2c0.1,2.101,0.201,5.101,0.301,9c0.1,3.9,0.299,8.601,0.4,14c0.199,5.4,0.299,11.5,0.5,18.2
		c0.199,6.7,0.299,13.9,0.5,21.5c0.1,7.6,0.299,15.7,0.398,24c0.102,8.3,0.301,16.9,0.4,25.7c0.1,8.7,0.201,17.6,0.301,26.5
		c0.1,8.899,0.1,17.7,0.199,26.5c0.1,8.7,0.1,17.3,0.1,25.7v24c0,7.6-0.1,14.8-0.1,21.5c0,6.699-0.1,12.8-0.199,18.199
		c-0.1,5.4-0.1,10.101-0.201,14c-0.1,3.9-0.1,6.9-0.199,9c0,2.101-0.1,3.2-0.1,3.2s0-1.1-0.1-3.2c-0.102-2.1-0.201-5.1-0.301-9
		c-0.1-3.899-0.301-8.6-0.4-14c-0.199-5.399-0.299-11.5-0.5-18.199c-0.199-6.7-0.299-13.9-0.5-21.5c-0.199-7.601-0.299-15.7-0.4-24
		c-0.1-8.301-0.299-16.9-0.398-25.7c-0.102-8.7-0.201-17.601-0.301-26.5c-0.1-8.9-0.1-17.8-0.199-26.5c0-8.7-0.102-17.3-0.102-25.7
		v-24c0-7.6,0.102-14.8,0.102-21.5s0.1-12.8,0.199-18.2c0.1-5.399,0.1-10.1,0.199-14c0.102-3.899,0.102-6.899,0.201-9
		C176.64,64.007,176.64,62.906,176.64,62.906z M158.441,67.306c0,0,0,1.1,0.1,3.1s0.199,5,0.299,8.7c0.102,3.8,0.301,8.3,0.4,13.601
		c0.201,5.199,0.301,11.199,0.5,17.6c0.201,6.5,0.301,13.4,0.5,20.8c0.1,7.4,0.301,15.2,0.4,23.3c0.1,8.101,0.301,16.4,0.4,24.9
		s0.199,17.1,0.299,25.7c0.102,8.6,0.102,17.2,0.201,25.7c0,8.5,0.1,16.8,0.1,24.899v23.3c0,7.4-0.1,14.4-0.1,20.801
		c0,6.5-0.1,12.399-0.201,17.6c-0.1,5.2-0.1,9.8-0.199,13.6c-0.1,3.801-0.1,6.7-0.199,8.7c0,2-0.102,3.101-0.102,3.101
		s0-1.101-0.1-3.101s-0.199-5-0.299-8.7c-0.102-3.8-0.301-8.3-0.4-13.6c-0.201-5.2-0.301-11.2-0.5-17.6
		c-0.201-6.4-0.301-13.4-0.5-20.801c-0.201-7.399-0.301-15.199-0.4-23.3c-0.1-8.1-0.301-16.399-0.4-24.899s-0.199-17.101-0.299-25.7
		c-0.102-8.601-0.102-17.2-0.201-25.7c0-8.5-0.1-16.8-0.1-24.9v-23.3c0-7.399,0.1-14.399,0.1-20.8c0-6.5,0.1-12.4,0.201-17.6
		c0.1-5.2,0.1-9.801,0.199-13.601s0.1-6.7,0.199-8.7C158.441,68.406,158.441,67.306,158.441,67.306z M136.14,83.106c0,0,0,1,0.1,2.7
		c0.1,1.8,0.201,4.4,0.301,7.7s0.299,7.399,0.4,12c0.1,4.6,0.299,9.899,0.5,15.6c0.199,5.7,0.299,11.9,0.5,18.4
		c0.1,6.5,0.299,13.399,0.398,20.6c0.102,7.101,0.201,14.5,0.301,22s0.199,15.101,0.301,22.7c0.1,7.6,0.1,15.2,0.1,22.7v22
		c0,7.1,0,14-0.1,20.6c0,6.5-0.102,12.7-0.102,18.4s-0.1,10.899-0.199,15.6c-0.1,4.601-0.1,8.7-0.199,12
		c-0.102,3.3-0.102,5.9-0.201,7.7c0,1.8-0.1,2.7-0.1,2.7s0-0.9-0.1-2.7s-0.201-4.399-0.301-7.7c-0.1-3.3-0.299-7.399-0.4-12
		c-0.1-4.6-0.299-9.899-0.5-15.6c-0.199-5.7-0.299-11.9-0.5-18.4c-0.1-6.5-0.299-13.399-0.398-20.6
		c-0.102-7.101-0.201-14.5-0.301-22s-0.199-15.101-0.199-22.7c-0.102-7.6-0.102-15.2-0.102-22.7v-22c0-7.1,0-14,0.102-20.6
		c0-6.5,0.1-12.7,0.1-18.4s0.1-10.899,0.199-15.6c0.1-4.601,0.1-8.7,0.201-12c0.1-3.3,0.1-5.9,0.199-7.7V83.106z"/>
	<path opacity="0.3" fill="#8DC63F" enable-background="new    " d="M122.14,169.007v-2.5c0-0.8,0-1.8,0.1-3
		c0-1.2,0.1-2.601,0.301-4.101c0.1-0.8,0.1-1.6,0.199-2.5c0.1-0.8,0.201-1.699,0.301-2.6s0.199-1.9,0.299-2.9c0.102-1,0.301-2,0.4-3
		c0.6-4.199,1.5-8.699,2.6-13.399c1.201-4.601,2.602-9.5,4.4-14.101c1.801-4.6,3.801-9.199,6-13.199c0.301-0.5,0.6-1,0.801-1.601
		c0.299-0.5,0.6-1,0.9-1.399c0.6-0.9,1.199-2,1.799-2.801c0.6-0.899,1.301-1.8,1.9-2.699c0.6-0.9,1.301-1.601,2-2.4l1-1.2l1-1.1
		c0.699-0.7,1.4-1.5,2.1-2.101c0.701-0.6,1.4-1.199,2.1-1.899c0.701-0.601,1.4-1.101,2.102-1.7l1.1-0.8l1.1-0.7
		c0.699-0.4,1.5-0.9,2.199-1.3c1.5-0.7,2.9-1.4,4.4-1.8c2.9-1,5.801-1.2,8.6-1.101c1.4,0.2,2.801,0.2,4.102,0.601
		c0.699,0.199,1.299,0.3,2,0.5c0.699,0.199,1.299,0.5,1.898,0.8c2.5,1,4.9,2.5,7,4.1c2.102,1.7,4,3.4,5.701,5.2
		c1.699,1.7,3,3.6,4.199,5.1c0.6,0.7,1,1.5,1.5,2.2c0.4,0.7,0.801,1.2,1.1,1.7c0.602,0.9,0.9,1.4,0.9,1.4l-1-0.5
		c-0.699-0.4-1.6-0.9-2.9-1.601c-1.199-0.5-2.699-1.399-4.398-2c-0.9-0.3-1.701-0.8-2.701-1c-0.5-0.2-1-0.3-1.5-0.5
		c-0.199-0.1-0.5-0.2-0.799-0.3c-0.301-0.1-0.5-0.1-0.801-0.2c-2.1-0.5-4.301-1-6.699-1.1c-0.602,0-1.201-0.101-1.801-0.101
		s-1.199,0.101-1.801,0.101c-1.199,0-2.5,0.2-3.799,0.399c-0.6,0-1.301,0.301-1.9,0.4c-0.6,0.2-1.301,0.2-1.9,0.5
		c-1.299,0.5-2.6,0.8-3.9,1.4c-1.299,0.5-2.6,1.3-3.898,1.899c-0.701,0.4-1.301,0.8-1.9,1.2l-1,0.6l-1,0.7
		c-2.6,1.8-5.1,4.101-7.5,6.601c-0.6,0.699-1.201,1.3-1.801,2c-0.6,0.699-1.199,1.399-1.699,2.1c-0.6,0.7-1.1,1.5-1.701,2.2
		c-0.299,0.399-0.6,0.7-0.799,1.1c-0.301,0.4-0.5,0.8-0.801,1.2c-2.199,3.1-4.1,6.5-5.9,10.1c-0.398,0.9-0.898,1.801-1.299,2.601
		l-1.201,2.7c-0.199,0.399-0.398,0.899-0.6,1.3c-0.199,0.5-0.4,0.899-0.6,1.399c-0.4,0.9-0.699,1.801-1.1,2.7
		c-0.301,0.9-0.701,1.8-1,2.7c-0.201,0.4-0.301,0.9-0.5,1.3c-0.1,0.5-0.301,0.9-0.4,1.4c-0.301,0.899-0.6,1.8-0.801,2.6
		c-0.299,0.8-0.5,1.7-0.699,2.601c-0.199,0.8-0.5,1.699-0.699,2.399l-0.602,2.4c-0.199,0.8-0.398,1.5-0.5,2.2
		c-0.199,0.699-0.299,1.399-0.398,2.1c-0.301,1.3-0.5,2.5-0.801,3.6c-0.199,1.101-0.4,2-0.5,2.801
		C122.339,168.207,122.14,169.007,122.14,169.007L122.14,169.007z"/>
</g>
<path fill="#3B2314" d="M346.273,193.117c1.376,2.642-3.153,3.435-4.63,3.776c0.591,1.495,1.656,1.151,0.421,2.625
	c-0.846,1.01-2.438,1.557-3.723,1.59c-0.637,0.015-0.828-0.575-1.532-0.291c-0.354,0.143-0.831,1.278-1.157,1.606
	c-0.756,0.758-3.614,2.2-3.923,0.489c0.609,0.695-1.171,2.434-2.047,2.726c-1.229,0.412-2.571-0.382-3.534-1.057
	c-1.938,2.328-5.843-1.159-4.946-1.911c-2.257,1.544-4.785,1.392-6.249-0.911c-1.725,0.313-3.522-0.166-3.208-2.289
	c-1.333-0.508-5.998-0.599-4.258-3.543c-1.214-0.435-4.167-2.309-3.31-3.921c-2.408-0.683-4.305-1.965-3.688-4.79
	c-2.673-0.056-3.104-3.312-1.557-5.026c-0.486-0.528-1.519-1.2-1.84-1.843c-0.463-0.93,0.22-1.763-0.146-2.498
	c-0.308-0.619-1.744-0.792-2.08-1.732c-0.348-0.971,0.126-2.431,0.701-3.305c-0.75-0.83-1.678-1.388-1.717-2.547
	c-0.034-0.96,1.025-3.041,1.925-3.139c-2.068-1.037-2.459-3.564-0.604-4.969c-1.294-1.166-3.162-7.221,0.182-6.445
	c-0.858-1.243,0.855-3.586,2.275-3.251c-1.474-1.039-1.063-3.994,0.913-3.766c-1.352-1.348-0.341-2.405,0.703-3.518
	c-2.695-2.164,0.895-4.479,2.893-5.056c-1.375-2.953,0.184-7.293,3.541-4.777c-0.171-2.063,2.451-4.362,3.498-1.885
	c0.34-2.976,3.556-5.132,5.7-2.289c0.077-3.312,2.771-2.932,4.595-1.118c0.753-3.568,3.661-0.916,5.074,0.336
	c1.32-1.515,3.466-1.811,4.521,0.204c1.851-2.342,2.599-1.179,4.295,0.318c1.591-1.887,2.812-0.964,4.18,0.438
	c1.52-2.718,3.758-2.21,5.687-0.509c1.376-0.655,3.16,0.495,4.142,1.562c0.045-0.105-0.112-0.192-0.041-0.276
	c0.883-0.177,1.685-1.073,2.711-0.843c1.061,0.239,2.066,1.848,2.851,2.546c1.86-1.621,3.766,1.609,4.992,2.348
	c0.997,0.601,2.192,0.426,2.937,1.522c0.521,0.77,0.341,1.916,0.63,2.742c2.225,0.542,5.88,3.701,3.193,6.097
	c2.732-1.101,2.889,2.513,1.908,4.016c0.616,0.67,2.053,1.57,2.055,2.56c0,0.997-1.574,2.224-2.273,2.634
	c0.484,1.058,3.621,4.439,0.558,4.931c1.418,1.698,3.672,2.588,1.304,4.783c1.669,2.483,0.42,4.947-2.43,4.585
	c0.654,1.741,0.909,4.212-1.141,5.192c0.829,1.569-2.316,4.355-3.771,3.555"/>
<path fill="#E9AC95" d="M342.657,142.344c30.681,25.2,16.798,38.343,16.798,38.343c5.134,11.122,17.178,3.633,17.178,3.633
	s0.507,5.905,2.397,10.018c2.374,5.166,17.233,33.182,5.36,26.591c-1.98-1.1-28.176-11.253-31.425-12.589
	c0,0,7.311-12.153-3.886-17.123c0,0-12.938,14.075-38.587-16.231c-3.716-8.916,7.765-23.548,7.765-23.548
	C332.841,139.855,342.657,142.344,342.657,142.344z"/>
<path fill="#AF6863" d="M332.203,169.996c0,0,0.368,0.255,0.921,0.638c0.134,0.1,0.291,0.192,0.439,0.317
	c0.146,0.127,0.298,0.263,0.455,0.402c0.159,0.141,0.323,0.286,0.49,0.434c0.159,0.155,0.303,0.33,0.457,0.495
	c0.147,0.171,0.309,0.333,0.446,0.508c0.13,0.181,0.259,0.359,0.385,0.532c0.131,0.169,0.24,0.344,0.334,0.516
	c0.099,0.17,0.19,0.332,0.276,0.48c0.145,0.313,0.274,0.569,0.338,0.766c0.072,0.187,0.104,0.313,0.104,0.313l-0.438,0.096
	c0,0-0.016-0.093-0.074-0.274c-0.046-0.182-0.153-0.433-0.271-0.738c-0.072-0.147-0.151-0.307-0.235-0.476
	c-0.08-0.171-0.175-0.345-0.291-0.517c-0.11-0.175-0.224-0.355-0.34-0.54c-0.123-0.179-0.27-0.346-0.405-0.521
	c-0.14-0.172-0.27-0.354-0.415-0.515c-0.154-0.154-0.307-0.307-0.453-0.453c-0.146-0.148-0.289-0.292-0.424-0.426
	c-0.139-0.132-0.292-0.236-0.42-0.343C332.554,170.274,332.203,169.996,332.203,169.996z"/>
<path fill="#AF6863" d="M338.853,179.659c0,0-0.052,0.005-0.147,0.015c-0.098,0.004-0.236,0.036-0.419,0.029
	c-0.184,0-0.408-0.009-0.661-0.054c-0.255-0.045-0.541-0.125-0.824-0.283c-0.288-0.148-0.574-0.371-0.812-0.663
	c-0.225-0.296-0.464-0.635-0.507-1.079c-0.02-0.09-0.026-0.196-0.024-0.312c-0.003-0.113-0.001-0.224,0.019-0.33
	c0.023-0.216,0.082-0.431,0.165-0.632c0.164-0.406,0.42-0.771,0.713-1.09c0.304-0.313,0.618-0.588,1.016-0.804
	c0.18-0.094,0.358-0.187,0.535-0.276c0.169-0.1,0.362-0.167,0.557-0.229c0.191-0.063,0.38-0.125,0.563-0.187
	c0.187-0.049,0.37-0.074,0.547-0.111c0.354-0.08,0.691-0.108,1.004-0.136c0.312-0.043,0.599-0.021,0.853-0.025
	c0.253,0,0.474,0.025,0.653,0.034c0.362,0.034,0.563,0.076,0.563,0.076s-0.207-0.001-0.565,0.011
	c-0.18,0.015-0.398,0.016-0.646,0.046c-0.248,0.037-0.528,0.051-0.829,0.11c-0.301,0.05-0.627,0.102-0.961,0.205
	c-0.167,0.048-0.343,0.085-0.511,0.145c-0.166,0.068-0.338,0.129-0.509,0.195c-0.351,0.098-0.689,0.349-1.049,0.525
	c-0.315,0.174-0.63,0.449-0.894,0.729c-0.268,0.284-0.495,0.604-0.64,0.949c-0.144,0.352-0.206,0.692-0.169,1.054
	c0.014,0.336,0.195,0.663,0.375,0.936c0.19,0.272,0.429,0.489,0.679,0.645c0.249,0.156,0.503,0.265,0.736,0.337
	c0.235,0.073,0.447,0.107,0.624,0.129c0.177,0.026,0.32,0.025,0.418,0.034C338.801,179.656,338.853,179.659,338.853,179.659z"/>
<ellipse transform="matrix(0.3963 -0.9181 0.9181 0.3963 40.8038 419.4524)" fill="#AF6863" cx="339.374" cy="178.697" rx="0.389" ry="0.803"/>
<ellipse transform="matrix(-0.912 0.4102 -0.4102 -0.912 724.9725 198.0891)" fill="#AF6863" cx="341.24" cy="176.803" rx="0.389" ry="0.803"/>
<path fill="#AF6863" d="M329.254,173.054c0.231,0.17,0.455,0.358,0.665,0.566c2.32,2.286,2.349,6.021,0.063,8.34
	s-6.021,2.347-8.341,0.062c-0.211-0.208-0.403-0.428-0.576-0.659"/>
<path fill="#AF6863" d="M346.473,155.579c0.233,0.169,0.456,0.358,0.667,0.565c2.32,2.287,2.348,6.021,0.062,8.341
	c-2.287,2.321-6.021,2.348-8.341,0.063c-0.211-0.208-0.403-0.429-0.576-0.659"/>
<g>
	<path fill="#FFFFFF" d="M347.706,180.183c3.079-4.546,1.325-11.288,1.325-11.288C353.648,173.56,347.706,180.183,347.706,180.183z"
		/>
	<path fill="#AF6863" d="M347.866,180.341c-0.08,0.081-0.208,0.09-0.299,0.02c-0.093-0.073-0.114-0.205-0.047-0.303
		c2.984-4.407,1.312-11.039,1.293-11.105c-0.023-0.099,0.021-0.202,0.106-0.252c0.089-0.05,0.2-0.035,0.272,0.037
		c4.711,4.761-1.259,11.528-1.319,11.597C347.87,180.336,347.868,180.338,347.866,180.341z M349.433,169.7
		c0.287,1.551,0.698,4.924-0.32,8.071C350.321,175.648,351.47,172.403,349.433,169.7z"/>
</g>
<path fill="#AF6863" d="M350.171,189.989c0,0,0.185-0.046,0.508-0.127c0.162-0.039,0.359-0.084,0.585-0.138
	c0.231-0.039,0.465-0.156,0.732-0.238c0.261-0.1,0.557-0.166,0.837-0.329c0.142-0.072,0.289-0.145,0.439-0.221
	c0.148-0.076,0.306-0.142,0.446-0.246c0.146-0.095,0.293-0.192,0.442-0.29l0.225-0.147l0.209-0.173
	c0.278-0.232,0.57-0.459,0.81-0.744c0.125-0.135,0.263-0.259,0.377-0.403c0.11-0.146,0.223-0.292,0.334-0.437
	c0.226-0.285,0.398-0.601,0.589-0.893c0.152-0.313,0.336-0.599,0.455-0.898c0.138-0.29,0.249-0.574,0.341-0.84
	c0.098-0.264,0.166-0.514,0.241-0.732c0.059-0.222,0.117-0.415,0.148-0.577c0.079-0.323,0.107-0.511,0.107-0.511
	s0.011,0.191-0.021,0.525c-0.011,0.167-0.044,0.367-0.073,0.6c-0.044,0.228-0.078,0.492-0.161,0.769
	c-0.073,0.279-0.162,0.58-0.28,0.891c-0.098,0.318-0.26,0.631-0.41,0.962c-0.086,0.16-0.183,0.318-0.276,0.481
	c-0.09,0.164-0.188,0.327-0.309,0.477c-0.114,0.154-0.23,0.309-0.346,0.465c-0.119,0.152-0.263,0.287-0.394,0.432
	c-0.256,0.295-0.568,0.533-0.867,0.775l-0.224,0.178l-0.244,0.146c-0.162,0.097-0.32,0.192-0.478,0.286
	c-0.309,0.195-0.655,0.29-0.957,0.427c-0.301,0.142-0.621,0.19-0.898,0.271c-0.281,0.067-0.537,0.151-0.77,0.158
	c-0.229,0.022-0.431,0.042-0.596,0.059C350.362,189.973,350.171,189.989,350.171,189.989z"/>
<path fill="#3B2314" d="M360.833,162.119c-0.475,1.55,0.241,2.684,1.459,3.586c0.487,0.359,2.916,2.15,3.574,1.666
	c2.56-1.888-0.597-3.269-1.578-4.498c1.359-2.233-1.861-3.839-3.306-4.786c0.85-1.341,0.227-3.181-0.608-4.383
	c-0.425-0.616-0.944-1.149-1.629-1.451c-0.349-0.154-1.144-0.066-1.38-0.214c-0.701-0.436-0.846-1.956-1.406-2.647
	c-0.616-0.759-1.427-1.223-2.35-1.239c0.208-1.455-1.1-2.991-2.166-3.83c-0.54-0.425-1.293-0.45-1.599-0.752
	c-0.416-0.407-0.627-1.292-1.146-1.796c-0.681-0.663-1.438-1.155-2.338-1.491c-1.038-0.389-0.838-0.227-1.615-1.008
	c-1.204-1.211-2.418-1.519-3.843-0.542c-0.552-0.486-0.967-1.119-1.738-1.239c-1.142-0.178-2.549,0.896-3.309,1.643
	c-0.793,0.78-0.396,0.662-1.366,0.641c-0.925-0.022-1.459-0.136-2.306,0.367c-1.268,0.754-2.107,2.611-3.396,3.178
	c-0.662,0.292-1.79-0.304-2.67-0.342c-1.644-0.073-3.15,1.151-3.957,2.622c-0.949-0.15-1.745-0.39-2.67,0.087
	c-0.572,0.295-2.099,1.411-1.502,2.064c-1.481,0.512-2.745,2.049-3.552,3.373c-0.668,1.097-0.993,2.119-1.063,3.381
	c-0.027,0.517,0.04,0.997-0.238,1.358c-0.181,0.238-1.199,0.632-1.549,0.965c-0.521,0.496-0.961,1.03-1.341,1.643
	c-0.515,0.828-1.01,1.902-0.29,2.845c-1.713,0.131-4.304,5.325-2.774,6.746c-1.321,1.409-2.66,3.361-2.446,5.385
	c0.109,1.018,0.646,1.964,1.483,2.55c0.579,0.406,1.444,0.527,1.857,1.063c-2.023,1.34,0.982,5.593,2.918,5.174
	c0.959,2.096,2.447,3.222,4.748,3.849c-0.209,0.771,1.148,2.974,1.715,3.587c0.653,0.707,1.831,1.203,2.737,1.347
	c0.206,1.343,2.64,3.883,4.091,3.265c-0.111,2.398,3.937,5.718,6.289,4.389c1.035,0.979,2.074,2.088,3.419,1.229
	c1.111-0.709,1.493-2.372,1.262-3.417l-0.089,0.03c-1.209-1.971-2.247-4.257-4.865-3.413c0.546-1.172-0.191-1.884-0.941-2.775
	c-1.421-1.687-1.558-2.032-3.419-2.255c-0.664-0.079-0.688,0.32-1.29-0.048c-0.634-0.388-0.641-1.727-1.005-2.347
	c-0.691-1.187-3.358-2.485-4.934-1.649c0.983-2.757-4.012-5.483-6.306-4.542c0.485-0.933,1.359-1.972,1.01-3.014
	c-0.265-0.794-2.236-2.333-2.941-2.677c2.048-0.906,4.305-3.209,2.269-5.398c0.08,1.299,1.807-0.271,2.242-0.909
	c0.721-1.058,1.061-2.612,0.593-3.796c2.989,0.293,4.256-3.937,2.087-5.681c2.294-0.51,3.698-2.745,2.296-4.992l0.174-0.176
	c2.267,1.37,4.48-0.068,4.956-2.369c1.776,2.143,5.988,0.813,5.65-2.171c1.19,0.451,2.74,0.088,3.786-0.647
	c0.634-0.445,2.177-2.196,0.876-2.256c2.219,2.004,4.487-0.286,5.364-2.348c0.354,0.7,1.922,2.648,2.719,2.902
	c1.049,0.333,2.073-0.556,3-1.055c-0.907,2.309,1.892,7.263,4.634,6.24c-0.813,1.587,1.458,3.287,2.655,3.961
	c0.626,0.354,1.965,0.342,2.361,0.97c0.379,0.596-0.021,0.625,0.067,1.289c0.251,1.858,0.132,2.461,1.84,3.858
	C358.946,161.956,359.668,162.682,360.833,162.119z"/>
<path fill="#E9AC95" d="M310.873,182.557c-1.24,1.732-4.839,3.549-4.839,3.549c-0.664,0.278-0.354,0.92-0.354,0.92
	c1.895,4.47,6.606,6.328,6.606,6.328c3.226,1.494,5.468,0.842,5.468,0.842c2.485-0.753,3.642-2.749,3.642-2.749
	C319.644,187.543,310.873,182.557,310.873,182.557z"/>
<path fill="#E9AC95" d="M349.595,143.26c1.713-1.266,3.477-4.893,3.477-4.893c0.268-0.667,0.915-0.367,0.915-0.367
	c4.498,1.828,6.425,6.512,6.425,6.512c1.541,3.204,0.922,5.456,0.922,5.456c-0.716,2.497-2.695,3.682-2.695,3.682
	C354.709,151.956,349.595,143.26,349.595,143.26z"/>
<path fill="#23140D" d="M316.428,176.537c-0.506-1.715-5.377-11.09-0.101-16.31c0.68-0.673,1.354-0.303,1.944,0.547
	c0.738,1.064,0.346,2.032-0.626,2.534C314.484,164.941,315.826,174.495,316.428,176.537z"/>
<path fill="#23140D" d="M342.308,150.274c-1.725-0.481-11.169-5.214-16.311,0.14c-0.662,0.69-0.283,1.358,0.577,1.936
	c1.074,0.723,2.036,0.315,2.522-0.664C330.684,148.499,340.256,149.702,342.308,150.274z"/>
<circle fill="#FFFFFF" cx="324.535" cy="176.595" r="5.897"/>
<ellipse transform="matrix(0.702 -0.7122 0.7122 0.702 -26.5742 285.0588)" fill="#231F20" cx="327.338" cy="174.284" rx="1.703" ry="2.118"/>
<circle fill="#FFFFFF" cx="341.755" cy="159.119" r="5.898"/>
<ellipse transform="matrix(0.7019 -0.7122 0.7122 0.7019 -8.9829 292.1499)" fill="#231F20" cx="344.558" cy="156.807" rx="1.704" ry="2.118"/>
<path fill="#FFFFFF" d="M355.287,199.461c-2.368,2.132-2.895,6.275-3.723,7.104c0.354,0.829,4.735,9.826,6.037,11.484
	c0.236-1.066,2.725-5.919,3.552-6.985c0.118,1.184-1.42,5.801-0.71,7.221c4.854,2.368,27.584,3.671,28.296,3.316
	C358.429,208.813,355.287,199.461,355.287,199.461L355.287,199.461z M370.36,186.614c2.367-2.131,6.066-2.781,7.012-3.491
	c0.83,0.473,9.117,5.919,10.655,7.458c-1.063,0.118-6.273,1.894-7.457,2.604c1.184,0.355,5.919-0.711,7.339,0.236
	c1.658,5.091,1.302,27.585,0.948,28.295C379.978,189.871,370.36,186.614,370.36,186.614z"/>
</svg>
